<?xml version="1.0" encoding="UTF-8"?>
<svg width="905px" height="140px" viewBox="0 0 905 140" version="1.1" xmlns="http://www.w3.org/2000/svg" xmlns:xlink="http://www.w3.org/1999/xlink">
    <!-- Generator: Sketch 61.2 (89653) - https://sketch.com -->
    <title>Hochschule-aalen</title>
    <desc>Created with Sketch.</desc>
    <g id="Page-1" stroke="none" stroke-width="1" fill="none" fill-rule="evenodd">
        <g id="Artboard" fill="#FFFFFF" fill-rule="nonzero">
            <g id="Hochschule-aalen">
                <g id="g8" transform="translate(222.723544, 45.425532)">
                    <g id="g10">
                        <path d="M101.099413,29.0969149 C101.099413,32.636383 100.472818,35.9680851 99.2983224,39.0875532 C98.1208573,42.212234 96.4623093,44.851383 94.2476948,47.1412766 C92.03605,49.4319149 89.4064274,51.2318085 86.4308409,52.4806383 C83.4567391,53.7346809 79.9941304,54.3564894 76.0526661,54.3564894 C70.3813823,54.3564894 66.0219401,52.971383 62.9780517,50.2614894 C60.0046924,47.5568085 58.4820057,43.8095745 58.4820057,39.0220213 C58.4820057,35.6903191 59.035845,32.4293617 60.1398113,29.3754255 C61.3195037,26.3929787 62.9773093,23.6830851 65.1904389,21.3269149 C67.3382363,19.0362766 69.9641468,17.3019149 73.0785644,15.9830851 C76.1885275,14.6635106 79.6518786,13.9709574 83.521329,13.9709574 C89.2675964,13.9709574 93.5565094,15.2897872 96.5959434,17.9952128 C99.5767268,20.6291489 101.099413,24.3801064 101.099413,29.0969149 Z M124.340615,54.2194681 C121.780037,54.2194681 119.359774,53.8709574 117.0776,53.2439362 C114.865213,52.6221277 112.857732,51.5803191 111.200669,50.2607447 C109.537666,48.9411702 108.222112,47.2782979 107.324537,45.2654255 C106.425476,43.2532979 105.938454,40.8926596 105.938454,38.2579787 C105.938454,34.8555319 106.563564,31.6645745 107.878376,28.7484043 C109.189475,25.8359574 110.988339,23.2675532 113.341784,21.1184043 C115.623958,18.9647872 118.392412,17.2304255 121.713962,15.9823404 C125.03477,14.7335106 128.628786,14.1064894 132.433646,14.1064894 C134.788577,14.1064894 137.070751,14.385 139.354409,14.8697872 C141.636583,15.4260638 143.779926,16.1893617 145.719848,17.1604255 L143.15927,27.5703191 L141.424996,27.5703191 C140.115381,25.972234 138.593437,24.7234043 136.929692,23.9601064 C135.271144,23.1968085 133.401751,22.7820213 131.258409,22.7820213 C127.453548,22.7820213 124.408175,24.1671277 122.056214,26.8770213 C119.77701,29.5824468 118.59806,32.9841489 118.59806,37.0746809 C118.59806,39.9208511 119.288503,42.0037234 120.744372,43.4603191 C122.197272,44.8506383 124.408917,45.5431915 127.382276,45.5431915 C129.737207,45.5431915 131.879065,45.0576596 133.818987,44.0865957 C135.683925,43.1155319 137.348413,42.0744681 138.728556,40.8919149 L140.456891,40.8919149 L137.900767,51.3018085 C135.477535,52.343617 133.334934,53.1061702 131.465541,53.5217021 C129.668162,54.007234 127.319171,54.2194681 124.340615,54.2194681 Z M209.365328,54.2194681 C206.114307,54.2194681 202.999889,53.9409574 199.954516,53.3146809 C196.910628,52.6928723 194.561637,51.9951064 192.969906,51.1662766 L195.323351,41.1711702 L196.42806,41.1711702 C196.910628,41.5904255 197.535738,42.0759574 198.297453,42.5614894 C199.058425,43.117766 200.097059,43.6688298 201.548474,44.2251064 C202.72297,44.7106383 204.109053,45.1961702 205.697071,45.5446809 C207.289545,45.8931915 208.948093,46.1009574 210.816743,46.1009574 C213.513925,46.1009574 215.590451,45.7517021 216.906747,45.1298936 C218.286891,44.503617 218.981788,43.6032979 218.981788,42.42 C218.981788,41.5204255 218.499221,40.8271277 217.525919,40.4078723 C216.558556,39.9223404 214.551817,39.3005319 211.508671,38.6035106 C206.322182,37.4254255 202.794241,35.9695745 200.856546,34.3007447 C198.988638,32.566383 198.020533,30.4842553 198.020533,27.9203191 C198.020533,23.6845745 199.954516,20.2865957 203.760861,17.7889362 C207.565722,15.3575532 212.753696,14.1087234 219.325525,14.1087234 C222.163023,14.1087234 225.001263,14.387234 227.838761,14.942766 C230.671805,15.5645745 232.748331,16.1915957 234.063884,16.818617 L231.851497,26.46 L230.813605,26.46 C229.150603,25.2111702 227.214393,24.1693617 225.002006,23.4060638 C222.718347,22.642766 220.366386,22.2279787 218.017395,22.2279787 C215.385546,22.2279787 213.378806,22.5064894 211.992724,23.132766 C210.61258,23.7545745 209.922137,24.7256383 209.922137,26.0452128 C209.922137,27.0162766 210.541308,27.7795745 211.721743,28.3358511 C212.896239,28.821383 214.765632,29.3769149 217.391542,29.9331915 C222.16525,30.975 225.623404,32.2893617 227.69993,33.8874468 C229.846243,35.4847872 230.87968,37.6339362 230.87968,40.4801064 C230.87968,44.7828723 228.944212,48.1138298 225.07402,50.5407447 C221.196403,52.9706383 215.938642,54.2194681 209.365328,54.2194681 Z M255.299089,54.2194681 C252.742966,54.2194681 250.318249,53.8709574 248.036075,53.2439362 C245.823687,52.6221277 243.816206,51.5803191 242.159143,50.2607447 C240.49614,48.9411702 239.183556,47.2782979 238.283011,45.2654255 C237.38395,43.2532979 236.901382,40.8926596 236.901382,38.2579787 C236.901382,34.8555319 237.522039,31.6645745 238.83685,28.7484043 C240.151661,25.8359574 241.946813,23.2675532 244.300258,21.1184043 C246.582432,18.9647872 249.350886,17.2304255 252.672436,15.9823404 C255.993244,14.7335106 259.593199,14.1064894 263.392121,14.1064894 C265.747051,14.1064894 268.029225,14.385 270.312884,14.8697872 C272.595057,15.4260638 274.7384,16.1893617 276.678322,17.1604255 L274.117744,27.5703191 L272.390894,27.5703191 C271.076083,25.972234 269.553396,24.7234043 267.889651,23.9601064 C266.231103,23.1968085 264.366165,22.7820213 262.218368,22.7820213 C258.413507,22.7820213 255.368134,24.1671277 253.019143,26.8770213 C250.736969,29.5824468 249.558019,32.9841489 249.558019,37.0746809 C249.558019,39.9208511 250.252916,42.0037234 251.704331,43.4603191 C253.157231,44.8506383 255.368876,45.5431915 258.342235,45.5431915 C260.697166,45.5431915 262.843478,45.0576596 264.778946,44.0865957 C266.649824,43.1155319 268.308372,42.0744681 269.688515,40.8919149 L271.421304,40.8919149 L268.860726,51.3018085 C266.437494,52.343617 264.294893,53.1061702 262.4255,53.5217021 C260.626637,54.007234 258.277646,54.2194681 255.299089,54.2194681 Z M372.286116,15.1482979 L363.500414,53.1776596 L351.258043,53.1776596 L352.225406,48.9411702 C351.046456,49.7752128 349.800689,50.5385106 348.697465,51.1655319 C347.518515,51.8580851 346.415291,52.4143617 345.375172,52.8284043 C344.060361,53.3846809 342.885123,53.7331915 341.847231,53.9402128 C340.739553,54.1479787 339.699434,54.2187234 338.59621,54.2187234 C335.273917,54.2187234 332.643552,53.3846809 330.779356,51.7873404 C328.843888,50.1944681 327.870587,47.8338298 327.870587,44.7091489 C327.870587,43.8795745 327.940373,43.0455319 328.010902,42.3529787 C328.082174,41.5896809 328.218035,40.7556383 328.424426,39.9208511 L334.164754,15.1475532 L346.479881,15.1475532 L342.124151,33.9544681 C341.77596,35.4110638 341.49904,36.6591489 341.364664,37.7009574 C341.157531,38.7420213 341.086259,39.6423404 341.086259,40.3348936 C341.086259,41.8614894 341.43445,42.9032979 342.124151,43.6010638 C342.885123,44.2228723 344.200677,44.571383 346.207416,44.571383 C347.240111,44.571383 348.349274,44.3643617 349.66557,43.9451064 C350.909852,43.5303191 352.289996,42.9032979 353.814167,42.0737234 L360.04226,15.1468085 L372.286116,15.1468085 L372.286116,15.1482979 Z M420.02171,54.2194681 C413.586485,54.2194681 408.535857,52.7591489 405.007916,49.9174468 C401.478491,47.0712766 399.750156,43.1170213 399.750156,38.0509574 C399.750156,34.577766 400.303995,31.3875532 401.478491,28.4706383 C402.658925,25.6289362 404.317473,23.0605319 406.459331,20.9069149 C408.535857,18.757766 411.094951,17.0896809 414.210853,15.8408511 C417.320074,14.5920213 420.784167,13.9702128 424.519241,13.9702128 C430.119253,13.9702128 434.408167,15.1482979 437.315451,17.4389362 C440.152949,19.7288298 441.604364,23.0605319 441.604364,27.5703191 C441.604364,29.0969149 441.464048,30.6242553 441.121797,32.0801064 C440.844877,33.5359574 440.429869,34.9970213 439.941362,36.4528723 L411.650275,36.4528723 C411.650275,36.5898936 411.650275,36.7306383 411.650275,36.8676596 C411.650275,36.9384043 411.650275,37.0746809 411.650275,37.2161702 C411.650275,39.8501064 412.547851,41.9329787 414.418728,43.3895745 C416.283667,44.8498936 419.11968,45.6131915 422.995812,45.6131915 C425.623208,45.6131915 428.183786,45.1276596 430.537231,44.2228723 C432.956009,43.3232979 435.032535,42.352234 436.762354,41.2396809 L438.146952,41.2396809 L435.864779,51.0232979 C433.511333,52.0643617 431.022026,52.8991489 428.390176,53.3839362 C425.764266,53.9409574 422.995812,54.2194681 420.02171,54.2194681 Z M545.856801,49.1534043 C545.099541,49.6389362 544.20345,50.2607447 543.094286,50.9585106 C542.05491,51.6510638 541.01776,52.2073404 540.120185,52.6221277 C538.803888,53.1784043 537.629393,53.5224468 536.520972,53.8002128 C535.411809,54.0787234 533.890607,54.2194681 531.883868,54.2194681 C528.773905,54.2194681 526.14354,53.3146809 524.136058,51.5810638 C522.130804,49.7759574 521.161957,47.4853191 521.161957,44.6443617 C521.161957,41.5904255 521.8524,39.0882979 523.305299,36.9391489 C524.691382,34.8562766 526.83324,33.1926596 529.600952,31.9438298 C532.231317,30.7612766 535.345734,29.9317021 538.940492,29.4461702 C542.53822,28.8898936 546.484881,28.541383 550.70475,28.263617 C550.70475,28.1265957 550.770082,27.9195745 550.845066,27.5710638 C550.910398,27.2925532 550.910398,26.9440426 550.910398,26.6 C550.910398,24.9319149 550.2155,23.8245745 548.693556,23.1982979 C547.246596,22.5764894 545.027527,22.227234 542.054167,22.227234 C540.048913,22.227234 537.837268,22.5757447 535.411809,23.2682979 C532.993031,23.8953191 531.193425,24.446383 529.9484,24.9319149 L528.840722,24.9319149 L530.638843,15.9123404 C532.024926,15.5638298 534.238056,15.1490426 537.212158,14.7342553 C540.187744,14.2494681 543.164815,14.0417021 546.138175,14.0417021 C552.021046,14.0417021 556.446563,14.805 559.208335,16.3978723 C561.9805,17.9244681 563.361386,20.3558511 563.361386,23.6175532 C563.361386,24.1030851 563.296054,24.6593617 563.221071,25.4174468 C563.155738,26.1152128 563.090406,26.7370213 562.948605,27.2932979 L557.000402,53.1784043 L544.959225,53.1784043 L545.856801,49.1534043 Z M613.170537,54.2194681 C606.742736,54.2194681 601.687654,52.7591489 598.164167,49.9174468 C594.631772,47.0712766 592.901952,43.1170213 592.901952,38.0509574 C592.901952,34.577766 593.457276,31.3875532 594.631772,28.4706383 C595.806267,25.6289362 597.467785,23.0605319 599.611128,20.9069149 C601.687654,18.757766 604.243778,17.0896809 607.36265,15.8408511 C610.472613,14.5920213 613.931509,13.9702128 617.669553,13.9702128 C623.27105,13.9702128 627.564418,15.1482979 630.467248,17.4389362 C633.304746,19.7288298 634.751706,23.0605319 634.751706,27.5703191 C634.751706,29.0969149 634.619557,30.6242553 634.272851,32.0801064 C633.989992,33.5359574 633.576468,34.9970213 633.098355,36.4528723 L604.796874,36.4528723 C604.796874,36.5898936 604.796874,36.7306383 604.796874,36.8676596 C604.796874,36.9384043 604.796874,37.0746809 604.796874,37.2161702 C604.796874,39.8501064 605.698905,41.9329787 607.567555,43.3895745 C609.438433,44.8498936 612.275931,45.6131915 616.147609,45.6131915 C618.777974,45.6131915 621.332613,45.1276596 623.681604,44.2228723 C626.107806,43.3232979 628.182847,42.352234 629.912666,41.2396809 L631.29281,41.2396809 L629.010636,51.0232979 C626.661645,52.0643617 624.171596,52.8991489 621.539746,53.3839362 C618.911608,53.9409574 616.149094,54.2194681 613.170537,54.2194681 Z M56.8197457,2.7262766 L45.2017432,53.1776596 L32.192461,53.1776596 L37.3136177,30.9020213 L18.2863454,30.9020213 L13.0998564,53.1776596 L0.0950287121,53.1776596 L11.7130312,2.7262766 L24.7223134,2.7262766 L20.4334003,21.3269149 L39.5267473,21.3269149 L43.8156604,2.7262766 L56.8197457,2.7262766 Z M189.925275,23.7530851 C189.925275,24.3093617 189.854003,25.0019149 189.788671,25.8359574 C189.718884,26.7355319 189.578568,27.5703191 189.370693,28.4043617 L183.62888,53.1776596 L171.387994,53.1776596 L175.675422,34.3707447 C176.019159,32.9141489 176.226292,31.6653191 176.437879,30.695 C176.643527,29.7246809 176.70886,28.8191489 176.70886,27.9851064 C176.70886,26.5285106 176.295336,25.4167021 175.604151,24.7241489 C174.844664,24.1023404 173.457838,23.7538298 171.452584,23.7538298 C170.553523,23.7538298 169.445845,23.9608511 168.130291,24.3808511 C166.884524,24.7956383 165.502896,25.4174468 163.981694,26.2514894 L157.756571,53.1784043 L145.508261,53.1784043 L157.685299,0.43712766 L169.929155,0.43712766 L165.573425,19.3810638 C167.993687,17.7174468 170.277346,16.3978723 172.352387,15.4982979 C174.425943,14.5935106 176.708117,14.1079787 179.198167,14.1079787 C182.590989,14.1079787 185.286686,14.9420213 187.157564,16.6056383 C189.029184,18.3385106 189.925275,20.6998936 189.925275,23.7530851 Z M320.883749,23.7530851 C320.883749,24.3093617 320.812477,25.0019149 320.747145,25.8359574 C320.677358,26.7355319 320.537043,27.5703191 320.329167,28.4043617 L314.587354,53.1776596 L302.347211,53.1776596 L306.634639,34.3707447 C306.978376,32.9141489 307.185509,31.6653191 307.397096,30.695 C307.602744,29.7246809 307.672531,28.8191489 307.672531,27.9851064 C307.672531,26.5285106 307.254553,25.4167021 306.563368,24.7241489 C305.80388,24.1023404 304.417055,23.7538298 302.411801,23.7538298 C301.51274,23.7538298 300.405062,23.9608511 299.093962,24.3808511 C297.843741,24.7956383 296.462112,25.4174468 294.940911,26.2514894 L288.715788,53.1784043 L276.467477,53.1784043 L288.644516,0.43712766 L300.888372,0.43712766 L296.532642,19.3810638 C298.952904,17.7174468 301.236563,16.3978723 303.311604,15.4982979 C305.38813,14.5935106 307.671788,14.1079787 310.163322,14.1079787 C313.550947,14.1079787 316.251842,14.9420213 318.11678,16.6056383 C319.987658,18.3385106 320.883749,20.6998936 320.883749,23.7530851 Z M399.408646,0.436382979 L387.230123,53.1776596 L374.987752,53.1776596 L387.160336,0.436382979 L399.408646,0.436382979 Z M515.835152,53.1776596 L502.690751,53.1776596 L501.516255,42.8385106 L483.18388,42.8385106 L477.302494,53.1776596 L463.743084,53.1776596 L493.839717,2.7262766 L508.850541,2.7262766 L515.835152,53.1776596 Z M592.555989,0.436382979 L580.37895,53.1776596 L568.135094,53.1776596 L580.312133,0.436382979 L592.555989,0.436382979 Z M682.147276,23.7530851 C682.147276,24.4456383 682.081944,25.1434043 682.006961,25.972234 C681.940144,26.7355319 681.799828,27.5703191 681.593437,28.4043617 L675.917699,53.1776596 L663.675328,53.1776596 L667.893712,34.3707447 C668.241903,32.9141489 668.447551,31.7360638 668.654684,30.7612766 C668.796485,29.7902128 668.937543,28.8198936 668.937543,27.9851064 C668.937543,26.5285106 668.514368,25.4167021 667.82838,24.7948936 C667.067408,24.1023404 665.685037,23.7538298 663.74066,23.7538298 C662.771813,23.7538298 661.673043,23.9608511 660.422822,24.3808511 C659.108011,24.7956383 657.727125,25.4174468 656.129454,26.2514894 L649.975603,53.1784043 L637.731747,53.1784043 L646.517449,15.1490426 L658.761304,15.1490426 L657.727125,19.3810638 C660.217174,17.7174468 662.500833,16.3978723 664.577358,15.4982979 C666.653884,14.5935106 668.937543,14.1079787 671.351866,14.1079787 C674.743203,14.1079787 677.440386,14.9420213 679.309779,16.6056383 C681.179914,18.202234 682.147276,20.6291489 682.147276,23.7530851 Z M549.10708,35.2047872 C546.898404,35.4118085 544.89315,35.6195745 542.953228,35.8265957 C541.01776,36.1043617 539.423802,36.4528723 538.112703,36.9384043 C536.728105,37.4239362 535.622654,38.1164894 534.927014,39.0212766 C534.167527,39.9208511 533.82379,41.0996809 533.82379,42.6262766 C533.82379,43.9458511 534.307842,44.8506383 535.27669,45.4017021 C536.244053,45.8917021 537.628651,46.165 539.495074,46.165 C540.669569,46.165 541.985123,45.8917021 543.371206,45.3361702 C544.752834,44.7798936 546.062449,44.0873404 547.247338,43.2532979 L549.10708,35.2047872 Z M85.32242,41.5189362 C86.3610541,39.9208511 87.1227687,38.187234 87.6773503,36.311383 C88.1606604,34.4407447 88.43758,32.2208511 88.43758,29.5117021 C88.43758,27.2210638 87.9535275,25.4167021 86.9156358,24.1678723 C85.8770016,22.9190426 84.2845283,22.297234 82.0721411,22.297234 C80.343064,22.297234 78.8203774,22.7120213 77.5753527,23.5460638 C76.2605414,24.3808511 75.0860459,25.5589362 74.1179409,27.0855319 C73.2159106,28.541383 72.4556809,30.2757447 71.970886,32.358617 C71.4163043,34.4414894 71.1445816,36.5906383 71.1445816,38.8142553 C71.1445816,41.3774468 71.693224,43.2532979 72.8729163,44.3658511 C74.0474118,45.4731915 75.569356,46.0294681 77.5753527,46.0294681 C79.0980394,46.0294681 80.4833798,45.6146809 81.8650082,44.851383 C83.1813043,44.0165957 84.3557998,42.9047872 85.32242,41.5189362 Z M500.614225,33.8144681 L498.542153,15.8408511 L488.299098,33.8144681 L500.614225,33.8144681 Z M429.359024,29.3046809 C429.430295,28.8898936 429.49934,28.541383 429.49934,28.1973404 C429.570611,27.8488298 429.570611,27.4995745 429.570611,27.1562766 C429.570611,25.3511702 429.015287,23.9608511 427.906124,23.0612766 C426.8029,22.0902128 425.210427,21.6046809 423.063372,21.6046809 C420.573322,21.6046809 418.430722,22.297234 416.768462,23.6168085 C415.038642,25.0019149 413.727543,26.877766 412.825513,29.3046809 L429.359024,29.3046809 L429.359024,29.3046809 Z M622.509336,29.3046809 C622.586546,28.8898936 622.651136,28.541383 622.651136,28.1973404 C622.716468,27.8488298 622.716468,27.4995745 622.716468,27.1562766 C622.716468,25.3511702 622.162629,23.9608511 621.063117,23.0612766 C619.953954,22.0902128 618.357026,21.6046809 616.214426,21.6046809 C613.724377,21.6046809 611.583261,22.297234 609.918774,23.6168085 C608.191924,25.0019149 606.874885,26.877766 605.983249,29.3046809 L622.509336,29.3046809 L622.509336,29.3046809 Z" id="path12"></path>
                    </g>
                </g>
                <path d="M89.1265381,37.1320213 C94.9641222,33.8591489 103.603568,33.8025532 108.838314,36.9920213 C114.298753,40.3229787 114.349979,46.1128723 108.491608,49.9524468 C102.340726,53.9826596 92.5252994,54.0682979 87.0893601,50.1311702 C81.8984167,46.3697872 83.0179737,40.5560638 89.1265381,37.1320213" id="path14"></path>
                <path d="M125.414885,38.502234 C129.492211,38.4731915 133.0595,40.5046809 133.397297,43.1140426 C133.748458,45.815 130.53233,48.0996809 126.199614,48.1361702 C121.866899,48.1711702 118.273626,45.9371277 118.183794,43.2331915 C118.098417,40.6141489 121.337559,38.532766 125.414885,38.502234" id="path16"></path>
                <path d="M144.457006,38.3905319 C148.520226,38.36 152.329541,40.3862766 152.988802,42.9896809 C153.671821,45.6817021 150.749688,47.9641489 146.431821,47.9991489 C142.113954,48.0356383 138.256382,45.8075532 137.831723,43.1095745 C137.418199,40.4994681 140.390816,38.4195745 144.457006,38.3905319" id="path18"></path>
                <path d="M163.408552,38.2088298 C167.453954,38.1782979 171.503811,40.198617 172.484537,42.7960638 C173.496444,45.4769149 170.863109,47.7481915 166.565287,47.7846809 C162.26598,47.8211702 158.140398,45.5982979 157.38388,42.907766 C156.649635,40.3088298 159.358696,38.2378723 163.408552,38.2088298" id="path20"></path>
                <path d="M163.408552,38.2088298 C167.453954,38.1782979 171.503811,40.198617 172.484537,42.7960638 C173.496444,45.4769149 170.863109,47.7481915 166.565287,47.7846809 C162.26598,47.8211702 158.140398,45.5982979 157.38388,42.907766 C156.649635,40.3088298 159.358696,38.2378723 163.408552,38.2088298" id="path22"></path>
                <path d="M163.408552,38.2088298 C167.453954,38.1782979 171.503811,40.198617 172.484537,42.7960638 C173.496444,45.4769149 170.863109,47.7481915 166.565287,47.7846809 C162.26598,47.8211702 158.140398,45.5982979 157.38388,42.907766 C156.649635,40.3088298 159.358696,38.2378723 163.408552,38.2088298" id="path24"></path>
                <path d="M182.504126,38.0703191 C186.536907,38.0412766 190.827305,40.0541489 192.128011,42.6434043 C193.474003,45.3182979 191.130209,47.5858511 186.84872,47.6208511 C182.564262,47.6543617 178.17735,45.4404255 177.08452,42.7603191 C176.029553,40.1651064 178.471345,38.1008511 182.504126,38.0703191" id="path26"></path>
                <path d="M182.504126,38.0703191 C186.536907,38.0412766 190.827305,40.0541489 192.128011,42.6434043 C193.474003,45.3182979 191.130209,47.5858511 186.84872,47.6208511 C182.564262,47.6543617 178.17735,45.4404255 177.08452,42.7603191 C176.029553,40.1651064 178.471345,38.1008511 182.504126,38.0703191" id="path28"></path>
                <path d="M182.504126,38.0703191 C186.536907,38.0412766 190.827305,40.0541489 192.128011,42.6434043 C193.474003,45.3182979 191.130209,47.5858511 186.84872,47.6208511 C182.564262,47.6543617 178.17735,45.4404255 177.08452,42.7603191 C176.029553,40.1651064 178.471345,38.1008511 182.504126,38.0703191" id="path30"></path>
                <path d="M69.3308696,48.7051064 C64.9476702,48.7401064 62.107945,46.4859574 62.9698852,43.7544681 C63.800644,41.1160638 67.7985316,39.0160638 71.9211444,38.9825532 C76.0422724,38.9564894 78.9265422,41.0028723 78.3519155,43.6353191 C77.7557588,46.3608511 73.7103568,48.666383 69.3308696,48.7051064" id="path32"></path>
                <path d="M48.8076374,48.8421277 C44.4066202,48.878617 41.8430722,46.62 43.0494914,43.8825532 C44.2135931,41.2337234 48.4839459,39.1292553 52.6214069,39.0987234 C56.753671,39.0696809 59.3914602,41.1220213 58.4849754,43.7604255 C57.5465669,46.4948936 53.2027153,48.8056383 48.8076374,48.8421277" id="path34"></path>
                <path d="M28.1359229,49.0439362 C23.7163454,49.0804255 21.429717,46.8128723 22.9850697,44.0664894 C24.485484,41.4094681 29.0342412,39.2975532 33.1902625,39.2685106 C37.3373749,39.2379787 39.7227441,41.2962766 38.4814315,43.9473404 C37.1985439,46.687766 32.5480763,49.0096809 28.1359229,49.0439362" id="path36"></path>
                <path d="M28.1359229,49.0439362 C23.7163454,49.0804255 21.429717,46.8128723 22.9850697,44.0664894 C24.485484,41.4094681 29.0342412,39.2975532 33.1902625,39.2685106 C37.3373749,39.2379787 39.7227441,41.2962766 38.4814315,43.9473404 C37.1985439,46.687766 32.5480763,49.0096809 28.1359229,49.0439362" id="path38"></path>
                <path d="M28.1359229,49.0439362 C23.7163454,49.0804255 21.429717,46.8128723 22.9850697,44.0664894 C24.485484,41.4094681 29.0342412,39.2975532 33.1902625,39.2685106 C37.3373749,39.2379787 39.7227441,41.2962766 38.4814315,43.9473404 C37.1985439,46.687766 32.5480763,49.0096809 28.1359229,49.0439362" id="path40"></path>
                <path d="M7.21772765,49.2144681 C2.78330189,49.2539362 0.779532404,46.9774468 2.68753076,44.2228723 C4.53168171,41.5598936 9.36329779,39.4420213 13.5334249,39.4114894 C17.696128,39.3824468 19.8268499,41.4459574 18.2462551,44.1037234 C16.6114643,46.8523404 11.6506686,49.1779787 7.21772765,49.2144681" id="path42"></path>
                <path d="M7.21772765,49.2144681 C2.78330189,49.2539362 0.779532404,46.9774468 2.68753076,44.2228723 C4.53168171,41.5598936 9.36329779,39.4420213 13.5334249,39.4114894 C17.696128,39.3824468 19.8268499,41.4459574 18.2462551,44.1037234 C16.6114643,46.8523404 11.6506686,49.1779787 7.21772765,49.2144681" id="path44"></path>
                <path d="M7.21772765,49.2144681 C2.78330189,49.2539362 0.779532404,46.9774468 2.68753076,44.2228723 C4.53168171,41.5598936 9.36329779,39.4420213 13.5334249,39.4114894 C17.696128,39.3824468 19.8268499,41.4459574 18.2462551,44.1037234 C16.6114643,46.8523404 11.6506686,49.1779787 7.21772765,49.2144681" id="path46"></path>
                <path d="M112.375164,29.0090426 C115.060468,27.4511702 119.402092,27.4251064 122.175742,28.9464894 C125.011756,30.5028723 125.227797,33.126383 122.555857,34.8123404 C119.817842,36.54 115.197071,36.5690426 112.352149,34.8838298 C109.568847,33.2343617 109.628983,30.6034043 112.375164,29.0090426" id="path48"></path>
                <path d="M124.474249,22.0157447 C126.902678,20.6060638 131.031231,20.5829787 133.783351,21.9651064 C136.596349,23.3718085 137.002449,25.7421277 134.591095,27.2605319 C132.130742,28.8124468 127.75571,28.84 124.922666,27.3201064 C122.151243,25.8314894 121.994594,23.4574468 124.474249,22.0157447" id="path50"></path>
                <path d="M135.358007,15.6442553 C137.568167,14.3626596 141.496267,14.3425532 144.221661,15.5965957 C146.998281,16.8781915 147.556575,19.0258511 145.374627,20.4020213 C143.144422,21.8042553 138.989885,21.8288298 136.185796,20.4526596 C133.436645,19.1025532 133.106272,16.9489362 135.358007,15.6442553" id="path52"></path>
                <path d="M135.358007,15.6442553 C137.568167,14.3626596 141.496267,14.3425532 144.221661,15.5965957 C146.998281,16.8781915 147.556575,19.0258511 145.374627,20.4020213 C143.144422,21.8042553 138.989885,21.8288298 136.185796,20.4526596 C133.436645,19.1025532 133.106272,16.9489362 135.358007,15.6442553" id="path54"></path>
                <path d="M135.358007,15.6442553 C137.568167,14.3626596 141.496267,14.3425532 144.221661,15.5965957 C146.998281,16.8781915 147.556575,19.0258511 145.374627,20.4020213 C143.144422,21.8042553 138.989885,21.8288298 136.185796,20.4526596 C133.436645,19.1025532 133.106272,16.9489362 135.358007,15.6442553" id="path56"></path>
                <path d="M145.419914,9.80595745 C147.432592,8.6412766 151.18103,8.62340426 153.870788,9.76648936 C156.61103,10.9341489 157.291079,12.8919149 155.308097,14.1429787 C153.286509,15.4171277 149.330939,15.4357447 146.560258,14.1854255 C143.842289,12.9574468 143.366403,10.9974468 145.419914,9.80595745" id="path58"></path>
                <path d="M145.419914,9.80595745 C147.432592,8.6412766 151.18103,8.62340426 153.870788,9.76648936 C156.61103,10.9341489 157.291079,12.8919149 155.308097,14.1429787 C153.286509,15.4171277 149.330939,15.4357447 146.560258,14.1854255 C143.842289,12.9574468 143.366403,10.9974468 145.419914,9.80595745" id="path60"></path>
                <path d="M145.419914,9.80595745 C147.432592,8.6412766 151.18103,8.62340426 153.870788,9.76648936 C156.61103,10.9341489 157.291079,12.8919149 155.308097,14.1429787 C153.286509,15.4171277 149.330939,15.4357447 146.560258,14.1854255 C143.842289,12.9574468 143.366403,10.9974468 145.419914,9.80595745" id="path62"></path>
                <path d="M81.096612,61.0898936 C77.2947211,63.4885106 71.819434,63.5391489 69.0309352,61.2001064 C66.313708,58.9251064 67.2832978,55.3081915 71.0436136,53.1247872 C74.7081583,50.9987234 79.7959065,50.9532979 82.5539664,53.0257447 C85.3781009,55.1518085 84.7938228,58.7553191 81.096612,61.0898936" id="path64"></path>
                <path d="M62.3403199,72.8737234 C58.0031501,75.6081915 52.1425513,75.6707447 49.4364602,73.007766 C46.8090648,70.4170213 48.2723585,66.3101064 52.5367719,63.8347872 C56.6853692,61.425 62.1086874,61.373617 64.806612,63.7156383 C67.5810049,66.1224468 66.5542494,70.2181915 62.3403199,72.8737234" id="path66"></path>
                <path d="M40.8935275,86.4656383 C35.8956112,89.6171277 29.5851107,89.6945745 27.0171083,86.6302128 C24.5263167,83.6514894 26.6214028,78.9421277 31.5005332,76.1056383 C36.2408326,73.3540426 42.0420386,73.2944681 44.647904,75.9656383 C47.3287531,78.715 45.7362797,83.4102128 40.8935275,86.4656383" id="path68"></path>
                <path d="M40.8935275,86.4656383 C35.8956112,89.6171277 29.5851107,89.6945745 27.0171083,86.6302128 C24.5263167,83.6514894 26.6214028,78.9421277 31.5005332,76.1056383 C36.2408326,73.3540426 42.0420386,73.2944681 44.647904,75.9656383 C47.3287531,78.715 45.7362797,83.4102128 40.8935275,86.4656383" id="path70"></path>
                <path d="M40.8935275,86.4656383 C35.8956112,89.6171277 29.5851107,89.6945745 27.0171083,86.6302128 C24.5263167,83.6514894 26.6214028,78.9421277 31.5005332,76.1056383 C36.2408326,73.3540426 42.0420386,73.2944681 44.647904,75.9656383 C47.3287531,78.715 45.7362797,83.4102128 40.8935275,86.4656383" id="path72"></path>
                <path d="M15.7873872,102.300532 C9.95796965,105.98 3.12258409,106.069362 0.773593109,102.498617 C-1.49892945,99.0395745 1.4202338,93.5773404 7.06850287,90.2970213 C12.5393355,87.1187234 18.7800492,87.0479787 21.2307506,90.1264894 C23.7556932,93.3032979 21.4267473,98.7446809 15.7873872,102.300532" id="path74"></path>
                <path d="M15.7873872,102.300532 C9.95796965,105.98 3.12258409,106.069362 0.773593109,102.498617 C-1.49892945,99.0395745 1.4202338,93.5773404 7.06850287,90.2970213 C12.5393355,87.1187234 18.7800492,87.0479787 21.2307506,90.1264894 C23.7556932,93.3032979 21.4267473,98.7446809 15.7873872,102.300532" id="path76"></path>
                <path d="M15.7873872,102.300532 C9.95796965,105.98 3.12258409,106.069362 0.773593109,102.498617 C-1.49892945,99.0395745 1.4202338,93.5773404 7.06850287,90.2970213 C12.5393355,87.1187234 18.7800492,87.0479787 21.2307506,90.1264894 C23.7556932,93.3032979 21.4267473,98.7446809 15.7873872,102.300532" id="path78"></path>
                <path d="M92.7910829,27.7832979 C93.0910172,25.6468085 96.3331296,23.9467021 100.037022,23.921383 C103.740172,23.9012766 106.665275,25.566383 106.570989,27.6984043 C106.472248,29.8974468 103.224196,31.7502128 99.3124282,31.7740426 C95.3984331,31.8001064 92.4822395,29.9868085 92.7910829,27.7832979" id="path80"></path>
                <path d="M94.1600902,18.3131915 C94.4236464,16.4485106 97.4415505,14.9621277 100.907129,14.945 C104.366768,14.9278723 107.107752,16.3837234 107.024602,18.2454255 C106.942194,20.1607447 103.918351,21.7692553 100.271624,21.7901064 C96.6248975,21.8109574 93.892822,20.2314894 94.1600902,18.3131915" id="path82"></path>
                <path d="M95.2759352,10.0167021 C95.5053404,8.37617021 98.3279902,7.06553191 101.583466,7.05361702 C104.835972,7.03797872 107.409914,8.32180851 107.335673,9.9593617 C107.261432,11.6438298 104.437297,13.0542553 101.025172,13.0706383 C97.6108203,13.0885106 95.0383634,11.7011702 95.2759352,10.0167021" id="path84"></path>
                <path d="M95.2759352,10.0167021 C95.5053404,8.37617021 98.3279902,7.06553191 101.583466,7.05361702 C104.835972,7.03797872 107.409914,8.32180851 107.335673,9.9593617 C107.261432,11.6438298 104.437297,13.0542553 101.025172,13.0706383 C97.6108203,13.0885106 95.0383634,11.7011702 95.2759352,10.0167021" id="path86"></path>
                <path d="M95.2759352,10.0167021 C95.5053404,8.37617021 98.3279902,7.06553191 101.583466,7.05361702 C104.835972,7.03797872 107.409914,8.32180851 107.335673,9.9593617 C107.261432,11.6438298 104.437297,13.0542553 101.025172,13.0706383 C97.6108203,13.0885106 95.0383634,11.7011702 95.2759352,10.0167021" id="path88"></path>
                <path d="M96.3190238,2.62351064 C96.523187,1.1706383 99.1728548,0.00819148936 102.238273,1.39631687e-16 C105.302207,-0.0119148936 107.730636,1.12893617 107.666046,2.58031915 C107.600714,4.06968085 104.948819,5.31478723 101.745312,5.32670213 C98.5373503,5.34085106 96.1074364,4.11287234 96.3190238,2.62351064" id="path90"></path>
                <path d="M96.3190238,2.62351064 C96.523187,1.1706383 99.1728548,0.00819148936 102.238273,1.39631687e-16 C105.302207,-0.0119148936 107.730636,1.12893617 107.666046,2.58031915 C107.600714,4.06968085 104.948819,5.31478723 101.745312,5.32670213 C98.5373503,5.34085106 96.1074364,4.11287234 96.3190238,2.62351064" id="path92"></path>
                <path d="M96.3190238,2.62351064 C96.523187,1.1706383 99.1728548,0.00819148936 102.238273,1.39631687e-16 C105.302207,-0.0119148936 107.730636,1.12893617 107.666046,2.58031915 C107.600714,4.06968085 104.948819,5.31478723 101.745312,5.32670213 C98.5373503,5.34085106 96.1074364,4.11287234 96.3190238,2.62351064" id="path94"></path>
                <path d="M105.185648,62.913617 C105.037908,66.3443617 100.932371,69.2635106 96.018347,69.3148936 C91.1013536,69.3625532 87.5169893,66.5148936 87.9965874,63.0767021 C88.4605947,59.7651064 92.5468294,57.1348936 97.137904,57.0961702 C101.726009,57.0537234 105.329676,59.6109574 105.185648,62.913617" id="path96"></path>
                <path d="M104.383843,80.1842553 C104.202695,84.3224468 99.6710131,87.8611702 94.2610582,87.9237234 C88.8436792,87.9862766 84.9385931,84.5451064 85.520644,80.397234 C86.0789377,76.4131915 90.5898318,73.2631915 95.6115053,73.2125532 C100.630952,73.1574468 104.559053,76.2165957 104.383843,80.1842553" id="path98"></path>
                <path d="M103.541206,101.237128 C103.32071,106.327766 98.257461,110.701277 92.2379861,110.783936 C86.2088597,110.871064 81.9214315,106.616702 82.6371165,101.511915 C83.3171657,96.635 88.3470057,92.7835106 93.8920796,92.715 C99.4304717,92.647234 103.752051,96.3765957 103.541206,101.237128" id="path100"></path>
                <path d="M103.541206,101.237128 C103.32071,106.327766 98.257461,110.701277 92.2379861,110.783936 C86.2088597,110.871064 81.9214315,106.616702 82.6371165,101.511915 C83.3171657,96.635 88.3470057,92.7835106 93.8920796,92.715 C99.4304717,92.647234 103.752051,96.3765957 103.541206,101.237128" id="path102"></path>
                <path d="M103.541206,101.237128 C103.32071,106.327766 98.257461,110.701277 92.2379861,110.783936 C86.2088597,110.871064 81.9214315,106.616702 82.6371165,101.511915 C83.3171657,96.635 88.3470057,92.7835106 93.8920796,92.715 C99.4304717,92.647234 103.752051,96.3765957 103.541206,101.237128" id="path104"></path>
                <path d="M102.397149,127.610745 C102.118745,134.036596 96.380644,139.594149 89.5860911,139.70734 C82.7826292,139.823511 78.0311936,134.429043 78.9339664,127.977128 C79.7892248,121.853617 85.4790689,117.034043 91.6707834,116.943936 C97.8573011,116.855319 102.661448,121.508085 102.397149,127.610745" id="path106"></path>
                <path d="M102.397149,127.610745 C102.118745,134.036596 96.380644,139.594149 89.5860911,139.70734 C82.7826292,139.823511 78.0311936,134.429043 78.9339664,127.977128 C79.7892248,121.853617 85.4790689,117.034043 91.6707834,116.943936 C97.8573011,116.855319 102.661448,121.508085 102.397149,127.610745" id="path108"></path>
                <path d="M102.397149,127.610745 C102.118745,134.036596 96.380644,139.594149 89.5860911,139.70734 C82.7826292,139.823511 78.0311936,134.429043 78.9339664,127.977128 C79.7892248,121.853617 85.4790689,117.034043 91.6707834,116.943936 C97.8573011,116.855319 102.661448,121.508085 102.397149,127.610745" id="path110"></path>
                <path d="M75.4037982,35.1995745 C73.0095201,33.5396809 73.7229779,30.8960638 76.8767432,29.292766 C79.9651764,27.7259574 84.3357547,27.6984043 86.7500779,29.2302128 C89.2148852,30.7940426 88.7872559,33.4339362 85.6817473,35.1280851 C82.5005127,36.8646809 77.8441058,36.8981915 75.4037982,35.1995745" id="path112"></path>
                <path d="M64.6848564,27.7207447 C62.5244381,26.2157447 63.3782116,23.8245745 66.4948564,22.3694681 C69.5439418,20.9501064 73.7162961,20.927766 75.9086382,22.3173404 C78.1447826,23.7367021 77.5471411,26.126383 74.4691017,27.6581915 C71.3235029,29.2242553 66.8950164,29.2503191 64.6848564,27.7207447" id="path114"></path>
                <path d="M54.8976415,20.9590426 C52.931735,19.5947872 53.9028097,17.4173404 56.9741674,16.0940426 C59.9831624,14.8012766 63.9706563,14.7804255 65.9714561,16.0501064 C68.0086341,17.341383 67.2721616,19.5158511 64.2312428,20.9076596 C61.1249918,22.3285106 56.9028958,22.3523404 54.8976415,20.9590426" id="path116"></path>
                <path d="M54.8976415,20.9590426 C52.931735,19.5947872 53.9028097,17.4173404 56.9741674,16.0940426 C59.9831624,14.8012766 63.9706563,14.7804255 65.9714561,16.0501064 C68.0086341,17.341383 67.2721616,19.5158511 64.2312428,20.9076596 C61.1249918,22.3285106 56.9028958,22.3523404 54.8976415,20.9590426" id="path118"></path>
                <path d="M54.8976415,20.9590426 C52.931735,19.5947872 53.9028097,17.4173404 56.9741674,16.0940426 C59.9831624,14.8012766 63.9706563,14.7804255 65.9714561,16.0501064 C68.0086341,17.341383 67.2721616,19.5158511 64.2312428,20.9076596 C61.1249918,22.3285106 56.9028958,22.3523404 54.8976415,20.9590426" id="path120"></path>
                <path d="M45.9389582,14.735 C44.1438064,13.4898936 45.2113946,11.5030851 48.2315258,10.2974468 C51.193749,9.11191489 55.0134578,9.09776596 56.8464725,10.2579787 C58.7084413,11.4405319 57.8583798,13.4243617 54.8597785,14.6910638 C51.8002994,15.9845745 47.7645488,16.0046809 45.9389582,14.735" id="path122"></path>
                <path d="M45.9389582,14.735 C44.1438064,13.4898936 45.2113946,11.5030851 48.2315258,10.2974468 C51.193749,9.11191489 55.0134578,9.09776596 56.8464725,10.2579787 C58.7084413,11.4405319 57.8583798,13.4243617 54.8597785,14.6910638 C51.8002994,15.9845745 47.7645488,16.0046809 45.9389582,14.735" id="path124"></path>
                <path d="M45.9389582,14.735 C44.1438064,13.4898936 45.2113946,11.5030851 48.2315258,10.2974468 C51.193749,9.11191489 55.0134578,9.09776596 56.8464725,10.2579787 C58.7084413,11.4405319 57.8583798,13.4243617 54.8597785,14.6910638 C51.8002994,15.9845745 47.7645488,16.0046809 45.9389582,14.735" id="path126"></path>
                <path d="M123.811276,52.588617 C127.137281,54.6975532 127.437957,58.2787234 124.331706,60.5924468 C121.141563,62.9731915 115.713048,63.0245745 112.372194,60.7056383 C109.115234,58.4455319 109.192445,54.8531915 112.396694,52.6846809 C115.517051,50.572766 120.566194,50.5303191 123.811276,52.588617" id="path128"></path>
                <path d="M140.087912,62.948617 C143.836349,65.326383 144.530505,69.3714894 141.469541,71.9979787 C138.321715,74.6974468 132.547235,74.76 128.761678,72.1290426 C125.074118,69.5703191 124.806107,65.5110638 127.993281,63.0647872 C131.093593,60.6855319 136.435246,60.6348936 140.087912,62.948617" id="path130"></path>
                <path d="M158.604405,74.6326596 C162.858425,77.3276596 164.059647,81.9357447 161.08703,84.9330851 C158.024582,88.0235106 151.863306,88.0994681 147.53356,85.0902128 C143.32557,82.1710638 142.612112,77.5518085 145.745833,74.7696809 C148.789721,72.0664894 154.464717,72.0069149 158.604405,74.6326596" id="path132"></path>
                <path d="M158.604405,74.6326596 C162.858425,77.3276596 164.059647,81.9357447 161.08703,84.9330851 C158.024582,88.0235106 151.863306,88.0994681 147.53356,85.0902128 C143.32557,82.1710638 142.612112,77.5518085 145.745833,74.7696809 C148.789721,72.0664894 154.464717,72.0069149 158.604405,74.6326596" id="path134"></path>
                <path d="M158.604405,74.6326596 C162.858425,77.3276596 164.059647,81.9357447 161.08703,84.9330851 C158.024582,88.0235106 151.863306,88.0994681 147.53356,85.0902128 C143.32557,82.1710638 142.612112,77.5518085 145.745833,74.7696809 C148.789721,72.0664894 154.464717,72.0069149 158.604405,74.6326596" id="path136"></path>
                <path d="M179.840353,88.0905319 C184.722453,91.1839362 186.567346,96.4868085 183.748409,99.9488298 C180.835185,103.522553 174.22178,103.61266 169.211985,100.136489 C164.360324,96.7697872 163.068527,91.4505319 166.102765,88.253617 C169.041973,85.1579787 175.100053,85.087234 179.840353,88.0905319" id="path138"></path>
                <path d="M179.840353,88.0905319 C184.722453,91.1839362 186.567346,96.4868085 183.748409,99.9488298 C180.835185,103.522553 174.22178,103.61266 169.211985,100.136489 C164.360324,96.7697872 163.068527,91.4505319 166.102765,88.253617 C169.041973,85.1579787 175.100053,85.087234 179.840353,88.0905319" id="path140"></path>
                <path d="M179.840353,88.0905319 C184.722453,91.1839362 186.567346,96.4868085 183.748409,99.9488298 C180.835185,103.522553 174.22178,103.61266 169.211985,100.136489 C164.360324,96.7697872 163.068527,91.4505319 166.102765,88.253617 C169.041973,85.1579787 175.100053,85.087234 179.840353,88.0905319" id="path142"></path>
            </g>
        </g>
    </g>
</svg>