<?xml version="1.0" encoding="UTF-8"?>
<svg width="340px" height="165px" viewBox="0 0 340 165" version="1.1" xmlns="http://www.w3.org/2000/svg" xmlns:xlink="http://www.w3.org/1999/xlink">
    <!-- Generator: Sketch 62 (91390) - https://sketch.com -->
    <title>Wahrnehmung</title>
    <desc>Created with Sketch.</desc>
    <g id="Wahrnehmung" stroke="none" stroke-width="1" fill="none" fill-rule="evenodd">
        <g id="SectionWahrnehmung" transform="translate(0.000000, 8.000000)">
            <path d="M4.404,9.024 L6.096,2.4 L7.668,9.024 L9.732,9.024 L11.94,0.36 L10.164,0.36 L8.76,6.852 L7.236,0.36 L5.136,0.36 L3.444,6.852 L2.1,0.36 L0.18,0.36 L2.292,9.024 L4.404,9.024 Z M15.610587,8.172 C15.610587,8.352 15.610587,8.628 15.670587,9 L17.278587,9 C17.170587,8.496 17.134587,7.98 17.134587,7.464 L17.122587,5.028 C17.122587,4.752 17.110587,4.032 16.702587,3.54 C16.102587,2.844 15.046587,2.76 14.542587,2.76 C13.966587,2.76 13.258587,2.856 12.706587,3.252 C12.070587,3.708 12.034587,4.356 12.022587,4.68 L13.762587,4.68 C13.762587,4.536 13.762587,4.344 13.894587,4.14 C14.050587,3.912 14.314587,3.804 14.566587,3.804 C14.734587,3.804 15.202587,3.864 15.358587,4.308 C15.430587,4.524 15.442587,4.716 15.442587,5.112 C14.854587,5.112 13.786587,5.112 13.042587,5.448 C11.926587,5.964 11.758587,6.852 11.758587,7.332 C11.758587,7.812 11.926587,8.304 12.286587,8.664 C12.526587,8.892 12.922587,9.144 13.798587,9.144 C14.134587,9.144 14.938587,9.144 15.610587,8.172 Z M14.350587,7.992 C13.762587,7.992 13.486587,7.536 13.486587,7.128 C13.486587,6.408 14.302587,6.048 15.442587,6.144 C15.442587,6.792 15.418587,7.26 15.106587,7.644 C14.938587,7.836 14.674587,7.992 14.350587,7.992 Z M20.457174,9 L20.445174,5.292 C20.445174,4.344 21.081174,4.056 21.585174,4.056 C22.5287529,4.056 22.578415,4.92837673 22.5810288,5.31609972 L22.581174,9 L24.345174,9 L24.345174,5.316 C24.345174,4.524 24.165174,3.972 23.949174,3.672 C23.661174,3.3 23.085174,2.856 22.185174,2.856 C21.081174,2.856 20.637174,3.48 20.433174,3.768 L20.433174,0.336 L18.669174,0.336 L18.669174,9 L20.457174,9 Z M27.643761,9 L27.643761,6.012 C27.643761,5.256 27.751761,4.332 29.551761,4.5 L29.551761,2.904 C28.111761,2.832 27.715761,3.564 27.487761,4.08 L27.451761,2.916 L25.783761,2.916 C25.819761,3.264 25.867761,4.14 25.867761,4.428 L25.867761,9 L27.643761,9 Z M31.782348,9 L31.782348,5.448 C31.782348,4.98 31.890348,4.68 31.998348,4.524 C32.190348,4.236 32.538348,4.056 32.922348,4.056 C33.378348,4.056 33.654348,4.308 33.786348,4.572 C33.882348,4.764 33.882348,4.98 33.882348,5.232 L33.882348,9 L35.694348,9 L35.694348,5.724 C35.694348,4.596 35.658348,4.284 35.526348,3.912 C35.370348,3.492 34.866348,2.772 33.678348,2.772 C32.358348,2.772 31.878348,3.552 31.710348,3.828 L31.662348,2.916 L29.958348,2.916 C29.988348,3.266 29.993348,3.78266667 29.9941813,3.95905556 L29.994348,9 L31.782348,9 Z M39.856935,9.228 C40.744935,9.228 41.536935,8.988 41.980935,8.52 C42.472935,8.004 42.532935,7.488 42.556935,7.2 L40.936935,7.2 C40.768935,7.872 40.324935,8.04 39.880935,8.04 C38.644935,8.04 38.644935,6.816 38.644935,6.42 L42.712935,6.42 C42.736935,5.916 42.760935,5.028 42.352935,4.2 C41.800935,3.072 40.768935,2.736 39.904935,2.736 C39.244935,2.736 38.668935,2.928 38.200935,3.24 C37.180935,3.948 36.940935,5.124 36.940935,6.108 C36.940935,7.08 37.168935,7.896 37.720935,8.472 C38.356935,9.132 39.340935,9.228 39.856935,9.228 Z M40.900935,5.304 L38.704935,5.304 C38.740935,4.596 39.064935,3.948 39.844935,3.948 C40.876935,3.948 40.900935,5.028 40.900935,5.304 Z M45.639522,9 L45.627522,5.292 C45.627522,4.344 46.263522,4.056 46.767522,4.056 C47.7111009,4.056 47.760763,4.92837673 47.7633768,5.31609972 L47.763522,9 L49.527522,9 L49.527522,5.316 C49.527522,4.524 49.347522,3.972 49.131522,3.672 C48.843522,3.3 48.267522,2.856 47.367522,2.856 C46.263522,2.856 45.819522,3.48 45.615522,3.768 L45.615522,0.336 L43.851522,0.336 L43.851522,9 L45.639522,9 Z M52.874109,9 L52.874109,5.436 C52.874109,5.028 52.874109,4.068 53.990109,4.068 C54.974109,4.068 54.986109,4.932 54.986109,5.4 L54.986109,9 L56.774109,9 L56.774109,5.964 C56.774109,5.064 56.798109,4.068 57.866109,4.068 C58.790109,4.068 58.886109,4.788 58.886109,5.436 L58.886109,9 L60.674109,9 L60.674109,5.58 C60.674109,5.052 60.698109,4.32 60.374109,3.792 C60.242109,3.552 59.750109,2.82 58.526109,2.82 C57.902109,2.82 57.086109,2.976 56.582109,3.948 C56.462109,3.66 56.066109,2.808 54.674109,2.808 C53.462109,2.808 52.994109,3.456 52.802109,3.72 L52.742109,2.94 L51.026109,2.94 C51.062109,3.324 51.086109,3.696 51.086109,4.08 L51.086109,9 L52.874109,9 Z M64.452696,9.156 C65.604696,9.156 66.060696,8.46 66.240696,8.196 L66.300696,9 L68.028696,9 C68.004696,8.832 67.992696,8.724 67.980696,8.556 L67.9802971,8.50539321 C67.9780367,8.35439335 67.9661697,8.10631579 67.944696,6.936 L67.944696,2.94 L66.120696,2.94 L66.120696,6 C66.120696,7.032 66.120696,7.884 64.980696,7.884 C64.0825907,7.884 64.035322,7.16240443 64.0328342,6.63750459 L64.032696,2.94 L62.232696,2.94 L62.232696,6.708 C62.232696,7.008 62.232696,7.848 62.628696,8.34 C62.964696,8.784 63.636696,9.156 64.452696,9.156 Z M71.351283,9 L71.351283,5.448 C71.351283,4.98 71.459283,4.68 71.567283,4.524 C71.759283,4.236 72.107283,4.056 72.491283,4.056 C72.947283,4.056 73.223283,4.308 73.355283,4.572 C73.451283,4.764 73.451283,4.98 73.451283,5.232 L73.451283,9 L75.263283,9 L75.263283,5.724 C75.263283,4.596 75.227283,4.284 75.095283,3.912 C74.939283,3.492 74.435283,2.772 73.247283,2.772 C71.927283,2.772 71.447283,3.552 71.279283,3.828 L71.231283,2.916 L69.527283,2.916 C69.557283,3.266 69.562283,3.78266667 69.5631163,3.95905556 L69.563283,9 L71.351283,9 Z M82.44987,8.94 L82.44987,4.464 C82.44987,3.852 82.48587,3.444 82.53387,2.964 L80.86587,2.964 L80.80587,3.768 C80.62587,3.504 80.21787,2.904 79.11387,2.904 C77.37387,2.904 76.52187,4.368 76.52187,5.904 C76.52187,7.368 77.33787,8.88 79.07787,8.88 C79.50987,8.88 80.14587,8.796 80.70987,8.052 C80.69787,8.976 80.69787,9.192 80.62587,9.492 C80.50587,10.032 80.04987,10.284 79.52187,10.284 C78.57387,10.284 78.48987,9.624 78.46587,9.444 L76.76187,9.444 C76.8660129,11.2144286 78.4430333,11.3780816 79.3302401,11.3875129 L79.42587,11.388 C80.58987,11.388 82.44987,11.172 82.44987,8.94 Z M79.48587,7.668 C78.29787,7.668 78.29787,6.204 78.29787,5.904 C78.29787,4.608 78.84987,4.092 79.52187,4.092 C80.60187,4.092 80.73387,5.256 80.73387,5.94 L80.7330494,6.03433911 C80.7244333,6.44753875 80.6253483,7.668 79.48587,7.668 Z" id="Wahrnehmung" fill="#FFFFFF" fill-rule="nonzero"></path>
            <g id="DiagramWahrnehmung" transform="translate(0.000000, 16.000000)">
                <g id="Text-Box" transform="translate(177.000000, 0.000000)">
                    <g id="Group-6">
                        <rect id="Rectangle" stroke-opacity="0.602873689" stroke="#FFFFFF" x="0" y="0" width="70" height="28"></rect>
                        <path d="M4.90744812,17 L4.90744812,14.048 L7.68844812,14.048 L7.68844812,13.292 L4.90744812,13.292 L4.90744812,11.267 L7.85944812,11.267 L7.85944812,10.502 L3.98944812,10.502 L3.98944812,17 L4.90744812,17 Z M9.80238837,11.447 L9.80238837,10.52 L8.78538837,10.52 L8.78538837,11.447 L9.80238837,11.447 Z M9.72138837,17 L9.72138837,12.482 L8.87538837,12.482 L8.87538837,17 L9.72138837,17 Z M12.1683286,17 L12.1683286,10.511 L11.3223286,10.511 L11.3223286,17 L12.1683286,17 Z M14.9932689,17.063 C15.2992689,17.063 15.5422689,17.036 15.6952689,17.009 L15.6952689,16.352 C15.6232689,16.37 15.4612689,16.397 15.2902689,16.397 C14.7303403,16.397 14.6903454,16.0710714 14.6874886,15.8443626 L14.6872689,13.085 L15.6952689,13.085 L15.6952689,12.464 L14.6872689,12.464 L14.6872689,11.249 L13.8502689,11.519 L13.8502689,12.464 L13.0492689,12.464 L13.0492689,13.085 L13.8502689,13.085 L13.8502689,16.1 C13.8502689,16.838 14.2192689,17.063 14.9932689,17.063 Z M18.4482091,17.135 C19.3572091,17.135 19.8072091,16.757 20.0052091,16.532 C20.3292091,16.181 20.3652091,15.812 20.3922091,15.587 L19.5462091,15.587 C19.4742091,16.235 19.0332091,16.523 18.4842091,16.523 C17.5572091,16.523 17.1702091,15.83 17.1882091,14.894 L20.4372091,14.894 C20.4552091,14.156 20.5002091,12.365 18.4752091,12.365 C18.2142091,12.365 17.6742091,12.392 17.2422091,12.698 C16.5312091,13.193 16.3512091,13.931 16.3512091,14.822 C16.3512091,16.253 17.0262091,17.135 18.4482091,17.135 Z M19.5732091,14.3 L17.2242091,14.3 C17.2422091,13.301 17.9082091,12.968 18.4572091,12.968 C19.5012091,12.968 19.5822091,13.868 19.5732091,14.3 Z M22.5151494,17 L22.5151494,14.597 C22.5151494,13.823 22.7491494,13.229 23.7481494,13.229 C23.8471494,13.229 23.9281494,13.229 23.9911494,13.238 C24.0541494,13.247 24.1081494,13.256 24.1531494,13.274 L24.1531494,12.446 C24.0091494,12.437 23.8201494,12.428 23.5681494,12.464 C23.1901494,12.518 22.6501494,12.725 22.4881494,13.355 L22.4701494,12.482 L21.6151494,12.482 C21.6421494,12.779 21.6601494,13.094 21.6601494,13.4 L21.6601494,17 L22.5151494,17 Z M26.5910896,17.126 C27.0590896,17.126 27.5360896,17.063 27.9320896,16.82 C28.2650896,16.613 28.5440896,16.181 28.5440896,15.677 C28.5440896,15.389 28.4540896,15.074 28.2020896,14.84 C27.9320896,14.588 27.6620896,14.516 26.4110896,14.219 C26.1770896,14.156 25.7720896,14.057 25.7720896,13.643 C25.7720896,12.995 26.5640896,12.995 26.6900896,12.995 C26.9960896,12.995 27.5900896,13.049 27.5630896,13.733 L28.4270896,13.733 C28.4270896,13.544 28.4270896,13.328 28.3100896,13.076 C28.0400896,12.536 27.2480896,12.374 26.6810896,12.374 C25.6370896,12.374 24.9170896,12.914 24.9170896,13.742 C24.9170896,14.687 25.7090896,14.876 26.6540896,15.092 C27.3290896,15.245 27.6440896,15.326 27.6440896,15.767 C27.6440896,15.92 27.5900896,16.073 27.5000896,16.19 C27.3200896,16.415 27.0590896,16.478 26.7080896,16.478 C25.8890896,16.478 25.7090896,16.001 25.7180896,15.659 L24.8270896,15.659 C24.8180896,16.748 25.6730896,17.126 26.5910896,17.126 Z M30.9190299,17.063 C31.2250299,17.063 31.4680299,17.036 31.6210299,17.009 L31.6210299,16.352 C31.5490299,16.37 31.3870299,16.397 31.2160299,16.397 C30.6561013,16.397 30.6161064,16.0710714 30.6132496,15.8443626 L30.6130299,13.085 L31.6210299,13.085 L31.6210299,12.464 L30.6130299,12.464 L30.6130299,11.249 L29.7760299,11.519 L29.7760299,12.464 L28.9750299,12.464 L28.9750299,13.085 L29.7760299,13.085 L29.7760299,16.1 C29.7760299,16.838 30.1450299,17.063 30.9190299,17.063 Z M34.3739701,17.135 C35.2829701,17.135 35.7329701,16.757 35.9309701,16.532 C36.2549701,16.181 36.2909701,15.812 36.3179701,15.587 L35.4719701,15.587 C35.3999701,16.235 34.9589701,16.523 34.4099701,16.523 C33.4829701,16.523 33.0959701,15.83 33.1139701,14.894 L36.3629701,14.894 C36.3809701,14.156 36.4259701,12.365 34.4009701,12.365 C34.1399701,12.365 33.5999701,12.392 33.1679701,12.698 C32.4569701,13.193 32.2769701,13.931 32.2769701,14.822 C32.2769701,16.253 32.9519701,17.135 34.3739701,17.135 Z M35.4989701,14.3 L33.1499701,14.3 C33.1679701,13.301 33.8339701,12.968 34.3829701,12.968 C35.4269701,12.968 35.5079701,13.868 35.4989701,14.3 Z M39.0889104,17.045 C40.0609104,17.045 40.3669104,16.541 40.5289104,16.226 L40.5469104,17 L41.4289104,17 C41.4199104,16.748 41.4019104,16.244 41.4019104,16.154 L41.4019104,12.482 L40.5289104,12.482 L40.5289104,15.038 C40.5289104,15.263 40.5289104,15.614 40.3399104,15.884 C40.0969104,16.244 39.7009104,16.388 39.2779104,16.388 C38.4139104,16.388 38.3149104,15.83 38.3149104,15.389 L38.3149104,12.482 L37.4509104,12.482 L37.4509104,15.515 C37.4509104,16.406 37.9729104,17.045 39.0889104,17.045 Z M44.7488506,17.135 C45.6578506,17.135 46.1078506,16.757 46.3058506,16.532 C46.6298506,16.181 46.6658506,15.812 46.6928506,15.587 L45.8468506,15.587 C45.7748506,16.235 45.3338506,16.523 44.7848506,16.523 C43.8578506,16.523 43.4708506,15.83 43.4888506,14.894 L46.7378506,14.894 C46.7558506,14.156 46.8008506,12.365 44.7758506,12.365 C44.5148506,12.365 43.9748506,12.392 43.5428506,12.698 C42.8318506,13.193 42.6518506,13.931 42.6518506,14.822 C42.6518506,16.253 43.3268506,17.135 44.7488506,17.135 Z M45.8738506,14.3 L43.5248506,14.3 C43.5428506,13.301 44.2088506,12.968 44.7578506,12.968 C45.8018506,12.968 45.8828506,13.868 45.8738506,14.3 Z M48.8157909,17 L48.8157909,14.597 C48.8157909,13.823 49.0497909,13.229 50.0487909,13.229 C50.1477909,13.229 50.2287909,13.229 50.2917909,13.238 C50.3547909,13.247 50.4087909,13.256 50.4537909,13.274 L50.4537909,12.446 C50.3097909,12.437 50.1207909,12.428 49.8687909,12.464 C49.4907909,12.518 48.9507909,12.725 48.7887909,13.355 L48.7707909,12.482 L47.9157909,12.482 C47.9427909,12.779 47.9607909,13.094 47.9607909,13.4 L47.9607909,17 L48.8157909,17 Z M52.9007311,17.045 C53.8727311,17.045 54.1787311,16.541 54.3407311,16.226 L54.3587311,17 L55.2407311,17 C55.2317311,16.748 55.2137311,16.244 55.2137311,16.154 L55.2137311,12.482 L54.3407311,12.482 L54.3407311,15.038 C54.3407311,15.263 54.3407311,15.614 54.1517311,15.884 C53.9087311,16.244 53.5127311,16.388 53.0897311,16.388 C52.2257311,16.388 52.1267311,15.83 52.1267311,15.389 L52.1267311,12.482 L51.2627311,12.482 L51.2627311,15.515 C51.2627311,16.406 51.7847311,17.045 52.9007311,17.045 Z M57.6606714,17 L57.6606714,14.399 C57.6606714,13.49 58.2276714,13.049 58.8396714,13.049 C59.1276714,13.049 59.4246714,13.148 59.6406714,13.355 C59.8476714,13.562 59.8836714,13.832 59.8836714,14.129 L59.8836714,17 L60.7476714,17 L60.7476714,13.931 C60.7476714,12.545 59.5146714,12.392 59.1096714,12.392 C58.0836714,12.392 57.7596714,13.022 57.6606714,13.211 L57.6516714,12.482 L56.8056714,12.482 L56.8146714,13.004 L56.8146714,17 L57.6606714,17 Z M64.0316116,18.809 C64.6526116,18.809 65.5346116,18.719 65.9126116,17.999 C66.0926116,17.657 66.1286116,17.216 66.1286116,16.127 L66.1376116,13.301 L66.1556116,12.482 L65.3366116,12.482 L65.3276116,13.103 C65.1476116,12.869 64.8146116,12.419 63.9056116,12.419 C62.7986116,12.419 61.8986116,13.166 61.8986116,14.696 C61.8986116,15.299 62.0246116,15.902 62.4116116,16.361 C62.7896116,16.829 63.3836116,16.919 63.7976116,16.919 C64.0676116,16.919 64.9226116,16.901 65.2826116,16.154 C65.2826116,17.378 65.2646116,18.233 64.0856116,18.233 C63.2846116,18.233 63.0686116,17.855 63.0326116,17.351 L62.1326116,17.351 C62.1686116,17.963 62.2226116,18.809 64.0316116,18.809 Z M64.0136116,16.289 C62.9786116,16.289 62.7716116,15.371 62.7716116,14.678 C62.7716116,14.102 62.9156116,13.022 63.9866116,13.022 C64.3736116,13.022 64.7336116,13.175 64.9586116,13.418 C65.1836116,13.652 65.3096116,13.976 65.3096116,14.543 C65.3096116,15.362 65.1836116,15.605 65.0036116,15.839 C64.7966116,16.109 64.5086116,16.289 64.0136116,16.289 Z" id="Filtersteuerung" fill="#FFFFFF" fill-rule="nonzero"></path>
                    </g>
                </g>
                <g id="Text-Box-Copy" transform="translate(83.000000, 74.000000)">
                    <g id="Group-6">
                        <rect id="Rectangle" stroke-opacity="0.602873689" stroke="#FFFFFF" x="0" y="0" width="70" height="28"></rect>
                        <path d="M8.36238837,13 L8.36238837,6.502 L7.46238837,6.502 L7.46238837,13 L8.36238837,13 Z M10.7733286,13 L10.7733286,10.399 C10.7733286,9.49 11.3403286,9.049 11.9523286,9.049 C12.2403286,9.049 12.5373286,9.148 12.7533286,9.355 C12.9603286,9.562 12.9963286,9.832 12.9963286,10.129 L12.9963286,13 L13.8603286,13 L13.8603286,9.931 C13.8603286,8.545 12.6273286,8.392 12.2223286,8.392 C11.1963286,8.392 10.8723286,9.022 10.7733286,9.211 L10.7643286,8.482 L9.91832862,8.482 L9.92732862,9.004 L9.92732862,13 L10.7733286,13 Z M16.4152689,13 L16.4152689,9.094 L17.4682689,9.094 L17.4682689,8.482 L16.4152689,8.482 L16.4152689,7.771 C16.4152689,7.456 16.4152689,7.114 17.0992689,7.114 C17.2702689,7.114 17.4502689,7.123 17.5942689,7.132 L17.5942689,6.457 C17.4142689,6.43 17.1442689,6.394 16.9012689,6.394 C16.3162689,6.394 15.9562689,6.601 15.7672689,6.889 C15.6142689,7.123 15.5782689,7.348 15.5782689,7.969 L15.5782689,8.482 L14.6872689,8.482 L14.6872689,9.094 L15.5782689,9.094 L15.5782689,13 L16.4152689,13 Z M20.1582091,13.153 C21.6972091,13.153 22.4442091,12.055 22.4442091,10.732 C22.4442091,9.787 22.0392091,8.365 20.2302091,8.365 C18.4572091,8.365 17.9352091,9.679 17.9352091,10.795 C17.9352091,12.118 18.6642091,13.153 20.1582091,13.153 Z M20.1762091,12.523 C19.2132091,12.523 18.8172091,11.668 18.8172091,10.741 C18.8172091,9.328 19.6902091,8.986 20.2302091,8.986 C21.0222091,8.986 21.5442091,9.58 21.5442091,10.705 C21.5442091,12.064 20.8152091,12.523 20.1762091,12.523 Z M24.6031494,13 L24.6031494,10.597 C24.6031494,9.823 24.8371494,9.229 25.8361494,9.229 C25.9351494,9.229 26.0161494,9.229 26.0791494,9.238 C26.1421494,9.247 26.1961494,9.256 26.2411494,9.274 L26.2411494,8.446 C26.0971494,8.437 25.9081494,8.428 25.6561494,8.464 C25.2781494,8.518 24.7381494,8.725 24.5761494,9.355 L24.5581494,8.482 L23.7031494,8.482 C23.7301494,8.779 23.7481494,9.094 23.7481494,9.4 L23.7481494,13 L24.6031494,13 Z M27.9860896,13 L27.9860896,10.435 C27.9860896,10.147 27.9950896,9.778 28.1840896,9.517 C28.2830896,9.382 28.5980896,9.022 29.1740896,9.022 C29.8400896,9.022 30.1640896,9.454 30.1640896,10.012 L30.1640896,13 L31.0190896,13 L31.0190896,10.471 C31.0190896,10.273 31.0190896,9.778 31.2170896,9.499 C31.3340896,9.337 31.6310896,9.022 32.1800896,9.022 C32.6120896,9.022 32.9000896,9.211 33.0440896,9.418 C33.1250896,9.535 33.1970896,9.706 33.1970896,10.102 L33.1970896,13 L34.0520896,13 L34.0520896,9.967 C34.0520896,8.635 33.0440896,8.365 32.3960896,8.365 C31.3970896,8.365 31.0280896,8.959 30.8750896,9.211 C30.7130896,8.878 30.3980896,8.365 29.3990896,8.365 C29.0120896,8.365 28.4000896,8.428 27.9680896,9.139 L27.9680896,8.482 L27.1130896,8.482 L27.1310896,9.085 L27.1310896,13 L27.9860896,13 Z M36.8500299,13.144 C37.2280299,13.144 37.8400299,13.072 38.2450299,12.325 C38.2450299,12.559 38.2630299,12.775 38.3260299,13 L39.0910299,13 C39.0280299,12.541 39.0190299,11.938 39.0190299,11.866 L39.0550299,9.706 C39.0550299,9.499 39.0460299,9.283 38.9020299,9.013 C38.6590299,8.554 37.9570299,8.347 37.3000299,8.347 C36.8230299,8.347 36.1840299,8.455 35.8420299,8.833 C35.5810299,9.139 35.5540299,9.454 35.5270299,9.688 L36.3730299,9.688 C36.3820299,9.508 36.4270299,8.923 37.2820299,8.923 C37.5250299,8.923 37.8940299,8.995 38.0650299,9.22 C38.2270299,9.418 38.2270299,9.661 38.2270299,10.219 C37.9660299,10.201 37.8310299,10.192 37.6150299,10.192 C37.2550299,10.192 36.5350299,10.219 36.0490299,10.489 C35.3830299,10.876 35.2570299,11.452 35.2570299,11.812 C35.2570299,12.559 35.8150299,13.144 36.8500299,13.144 Z M37.0480299,12.478 C36.2920299,12.478 36.1120299,11.983 36.1120299,11.695 C36.1120299,10.777 37.3990299,10.777 37.7410299,10.777 C37.9480299,10.777 38.0740299,10.786 38.2270299,10.804 C38.2090299,11.434 38.2000299,11.686 38.0110299,11.992 C37.8040299,12.307 37.4800299,12.478 37.0480299,12.478 Z M41.7629701,13.063 C42.0689701,13.063 42.3119701,13.036 42.4649701,13.009 L42.4649701,12.352 C42.3929701,12.37 42.2309701,12.397 42.0599701,12.397 C41.4569701,12.397 41.4569701,12.019 41.4569701,11.794 L41.4569701,9.085 L42.4649701,9.085 L42.4649701,8.464 L41.4569701,8.464 L41.4569701,7.249 L40.6199701,7.519 L40.6199701,8.464 L39.8189701,8.464 L39.8189701,9.085 L40.6199701,9.085 L40.6199701,12.1 C40.6199701,12.838 40.9889701,13.063 41.7629701,13.063 Z M44.3809104,7.447 L44.3809104,6.52 L43.3639104,6.52 L43.3639104,7.447 L44.3809104,7.447 Z M44.2999104,13 L44.2999104,8.482 L43.4539104,8.482 L43.4539104,13 L44.2999104,13 Z M47.7728506,13.153 C49.3118506,13.153 50.0588506,12.055 50.0588506,10.732 C50.0588506,9.787 49.6538506,8.365 47.8448506,8.365 C46.0718506,8.365 45.5498506,9.679 45.5498506,10.795 C45.5498506,12.118 46.2788506,13.153 47.7728506,13.153 Z M47.7908506,12.523 C46.8278506,12.523 46.4318506,11.668 46.4318506,10.741 C46.4318506,9.328 47.3048506,8.986 47.8448506,8.986 C48.6368506,8.986 49.1588506,9.58 49.1588506,10.705 C49.1588506,12.064 48.4298506,12.523 47.7908506,12.523 Z M52.1907909,13 L52.1907909,10.399 C52.1907909,9.49 52.7577909,9.049 53.3697909,9.049 C53.6577909,9.049 53.9547909,9.148 54.1707909,9.355 C54.3777909,9.562 54.4137909,9.832 54.4137909,10.129 L54.4137909,13 L55.2777909,13 L55.2777909,9.931 C55.2777909,8.545 54.0447909,8.392 53.6397909,8.392 C52.6137909,8.392 52.2897909,9.022 52.1907909,9.211 L52.1817909,8.482 L51.3357909,8.482 L51.3447909,9.004 L51.3447909,13 L52.1907909,13 Z M58.1117311,13.126 C58.5797311,13.126 59.0567311,13.063 59.4527311,12.82 C59.7857311,12.613 60.0647311,12.181 60.0647311,11.677 C60.0647311,11.389 59.9747311,11.074 59.7227311,10.84 C59.4527311,10.588 59.1827311,10.516 57.9317311,10.219 C57.6977311,10.156 57.2927311,10.057 57.2927311,9.643 C57.2927311,8.995 58.0847311,8.995 58.2107311,8.995 C58.5167311,8.995 59.1107311,9.049 59.0837311,9.733 L59.9477311,9.733 C59.9477311,9.544 59.9477311,9.328 59.8307311,9.076 C59.5607311,8.536 58.7687311,8.374 58.2017311,8.374 C57.1577311,8.374 56.4377311,8.914 56.4377311,9.742 C56.4377311,10.687 57.2297311,10.876 58.1747311,11.092 C58.8497311,11.245 59.1647311,11.326 59.1647311,11.767 C59.1647311,11.92 59.1107311,12.073 59.0207311,12.19 C58.8407311,12.415 58.5797311,12.478 58.2287311,12.478 C57.4097311,12.478 57.2297311,12.001 57.2387311,11.659 L56.3477311,11.659 C56.3387311,12.748 57.1937311,13.126 58.1117311,13.126 Z M63.0336714,10.975 L63.0336714,10.291 L60.7746714,10.291 L60.7746714,10.975 L63.0336714,10.975 Z M10.9808585,22 L12.9608585,17.482 L12.0248585,17.482 L10.6208585,21.064 L9.1808585,17.482 L8.2358585,17.482 L10.1258585,22 L10.9808585,22 Z M15.6327987,22.135 C16.5417987,22.135 16.9917987,21.757 17.1897987,21.532 C17.5137987,21.181 17.5497987,20.812 17.5767987,20.587 L16.7307987,20.587 C16.6587987,21.235 16.2177987,21.523 15.6687987,21.523 C14.7417987,21.523 14.3547987,20.83 14.3727987,19.894 L17.6217987,19.894 C17.6397987,19.156 17.6847987,17.365 15.6597987,17.365 C15.3987987,17.365 14.8587987,17.392 14.4267987,17.698 C13.7157987,18.193 13.5357987,18.931 13.5357987,19.822 C13.5357987,21.253 14.2107987,22.135 15.6327987,22.135 Z M16.7577987,19.3 L14.4087987,19.3 C14.4267987,18.301 15.0927987,17.968 15.6417987,17.968 C16.6857987,17.968 16.7667987,18.868 16.7577987,19.3 Z M19.699739,22 L19.699739,19.597 C19.699739,18.823 19.933739,18.229 20.932739,18.229 C21.031739,18.229 21.112739,18.229 21.175739,18.238 C21.238739,18.247 21.292739,18.256 21.337739,18.274 L21.337739,17.446 C21.193739,17.437 21.004739,17.428 20.752739,17.464 C20.374739,17.518 19.834739,17.725 19.672739,18.355 L19.654739,17.482 L18.799739,17.482 C18.826739,17.779 18.844739,18.094 18.844739,18.4 L18.844739,22 L19.699739,22 Z M23.5146793,22.144 C23.8926793,22.144 24.5046792,22.072 24.9096792,21.325 C24.9096792,21.559 24.9276792,21.775 24.9906792,22 L25.7556793,22 C25.6926792,21.541 25.6836792,20.938 25.6836792,20.866 L25.7196792,18.706 C25.7196792,18.499 25.7106792,18.283 25.5666792,18.013 C25.3236792,17.554 24.6216792,17.347 23.9646792,17.347 C23.4876792,17.347 22.8486792,17.455 22.5066792,17.833 C22.2456792,18.139 22.2186792,18.454 22.1916792,18.688 L23.0376792,18.688 C23.0466792,18.508 23.0916792,17.923 23.9466792,17.923 C24.1896792,17.923 24.5586792,17.995 24.7296792,18.22 C24.8916792,18.418 24.8916792,18.661 24.8916792,19.219 C24.6306793,19.201 24.4956792,19.192 24.2796793,19.192 C23.9196792,19.192 23.1996792,19.219 22.7136792,19.489 C22.0476792,19.876 21.9216792,20.452 21.9216792,20.812 C21.9216792,21.559 22.4796792,22.144 23.5146793,22.144 Z M23.7126792,21.478 C22.9566792,21.478 22.7766792,20.983 22.7766792,20.695 C22.7766792,19.777 24.0636792,19.777 24.4056792,19.777 C24.6126792,19.777 24.7386792,19.786 24.8916792,19.804 C24.8736792,20.434 24.8646792,20.686 24.6756792,20.992 C24.4686792,21.307 24.1446792,21.478 23.7126792,21.478 Z M28.0766195,22 L28.0766195,19.597 C28.0766195,18.823 28.3106195,18.229 29.3096195,18.229 C29.4086195,18.229 29.4896195,18.229 29.5526195,18.238 C29.6156195,18.247 29.6696195,18.256 29.7146195,18.274 L29.7146195,17.446 C29.5706195,17.437 29.3816195,17.428 29.1296195,17.464 C28.7516195,17.518 28.2116195,17.725 28.0496195,18.355 L28.0316195,17.482 L27.1766195,17.482 C27.2036195,17.779 27.2216195,18.094 27.2216195,18.4 L27.2216195,22 L28.0766195,22 Z M32.8815597,22.063 C33.5025597,22.063 34.1055597,21.802 34.4655597,21.289 C34.6905597,20.992 34.8975597,20.515 34.8975597,19.642 C34.8975597,18.652 34.5915597,18.202 34.3665597,17.941 C33.9525597,17.473 33.3855597,17.365 32.9355597,17.365 C31.9095597,17.365 31.5765597,17.932 31.4595597,18.139 L31.4595597,15.502 L30.6135597,15.502 L30.6135597,21.19 L30.5955597,22 L31.4145597,22 L31.4325597,21.316 C31.5225597,21.451 31.6215597,21.604 31.8735597,21.775 C32.2605597,22.036 32.6655597,22.063 32.8815597,22.063 Z M32.7015597,21.451 C31.4963424,21.451 31.4439416,20.1581985 31.4416633,19.7858602 L31.4415597,19.741 C31.4415597,19.453 31.4415597,17.941 32.7375597,17.941 C33.9165597,17.941 34.0065597,19.246 34.0065597,19.696 C34.0065597,20.434 33.7455597,21.451 32.7015597,21.451 Z M37.8215,22.135 C38.7305,22.135 39.1805,21.757 39.3785,21.532 C39.7025,21.181 39.7385,20.812 39.7655,20.587 L38.9195,20.587 C38.8475,21.235 38.4065,21.523 37.8575,21.523 C36.9305,21.523 36.5435,20.83 36.5615,19.894 L39.8105,19.894 C39.8285,19.156 39.8735,17.365 37.8485,17.365 C37.5875,17.365 37.0475,17.392 36.6155,17.698 C35.9045,18.193 35.7245,18.931 35.7245,19.822 C35.7245,21.253 36.3995,22.135 37.8215,22.135 Z M38.9465,19.3 L36.5975,19.3 C36.6155,18.301 37.2815,17.968 37.8305,17.968 C38.8745,17.968 38.9555,18.868 38.9465,19.3 Z M41.9244403,16.447 L41.9244403,15.52 L40.9074403,15.52 L40.9074403,16.447 L41.9244403,16.447 Z M41.8434403,22 L41.8434403,17.482 L40.9974403,17.482 L40.9974403,22 L41.8434403,22 Z M44.6773805,22.063 C44.9833805,22.063 45.2263805,22.036 45.3793805,22.009 L45.3793805,21.352 C45.3073805,21.37 45.1453805,21.397 44.9743805,21.397 C44.4144519,21.397 44.374457,21.0710714 44.3716003,20.8443626 L44.3713805,18.085 L45.3793805,18.085 L45.3793805,17.464 L44.3713805,17.464 L44.3713805,16.249 L43.5343805,16.519 L43.5343805,17.464 L42.7333805,17.464 L42.7333805,18.085 L43.5343805,18.085 L43.5343805,21.1 C43.5343805,21.838 43.9033805,22.063 44.6773805,22.063 Z M47.9073208,22.045 C48.8793207,22.045 49.1853208,21.541 49.3473208,21.226 L49.3653208,22 L50.2473208,22 C50.2383207,21.748 50.2203207,21.244 50.2203207,21.154 L50.2203207,17.482 L49.3473208,17.482 L49.3473208,20.038 C49.3473208,20.263 49.3473208,20.614 49.1583208,20.884 C48.9153207,21.244 48.5193207,21.388 48.0963207,21.388 C47.2323207,21.388 47.1333208,20.83 47.1333208,20.389 L47.1333208,17.482 L46.2693207,17.482 L46.2693207,20.515 C46.2693207,21.406 46.7913207,22.045 47.9073208,22.045 Z M52.667261,22 L52.667261,19.399 C52.667261,18.49 53.234261,18.049 53.846261,18.049 C54.134261,18.049 54.431261,18.148 54.647261,18.355 C54.854261,18.562 54.890261,18.832 54.890261,19.129 L54.890261,22 L55.754261,22 L55.754261,18.931 C55.754261,17.545 54.521261,17.392 54.116261,17.392 C53.090261,17.392 52.766261,18.022 52.667261,18.211 L52.658261,17.482 L51.812261,17.482 L51.821261,18.004 L51.821261,22 L52.667261,22 Z M59.0382012,23.809 C59.6592012,23.809 60.5412012,23.719 60.9192012,22.999 C61.0992012,22.657 61.1352012,22.216 61.1352012,21.127 L61.1442012,18.301 L61.1622012,17.482 L60.3432012,17.482 L60.3342012,18.103 C60.1542012,17.869 59.8212012,17.419 58.9122012,17.419 C57.8052012,17.419 56.9052012,18.166 56.9052012,19.696 C56.9052012,20.299 57.0312012,20.902 57.4182012,21.361 C57.7962012,21.829 58.3902012,21.919 58.8042012,21.919 C59.0742012,21.919 59.9292012,21.901 60.2892012,21.154 C60.2892012,22.378 60.2712012,23.233 59.0922012,23.233 C58.2912012,23.233 58.0752012,22.855 58.0392012,22.351 L57.1392012,22.351 C57.1752012,22.963 57.2292012,23.809 59.0382012,23.809 Z M59.0202012,21.289 C57.9852012,21.289 57.7782012,20.371 57.7782012,19.678 C57.7782012,19.102 57.9222012,18.022 58.9932012,18.022 C59.3802012,18.022 59.7402012,18.175 59.9652012,18.418 C60.1902012,18.652 60.3162012,18.976 60.3162012,19.543 C60.3162012,20.362 60.1902012,20.605 60.0102012,20.839 C59.8032012,21.109 59.5152012,21.289 59.0202012,21.289 Z" id="Informations-verarbeitung" fill="#FFFFFF" fill-rule="nonzero"></path>
                    </g>
                </g>
                <g id="Text-Box-Copy-2" transform="translate(83.000000, 113.000000)">
                    <g id="Group-6">
                        <rect id="Rectangle" stroke-opacity="0.602873689" stroke="#FFFFFF" x="0" y="0" width="70" height="28"></rect>
                        <path d="M22.5066792,13.144 C22.8846792,13.144 23.4966792,13.072 23.9016793,12.325 C23.9016793,12.559 23.9196793,12.775 23.9826792,13 L24.7476792,13 C24.6846793,12.541 24.6756793,11.938 24.6756793,11.866 L24.7116792,9.706 C24.7116792,9.499 24.7026793,9.283 24.5586792,9.013 C24.3156793,8.554 23.6136792,8.347 22.9566793,8.347 C22.4796792,8.347 21.8406793,8.455 21.4986793,8.833 C21.2376792,9.139 21.2106792,9.454 21.1836792,9.688 L22.0296793,9.688 C22.0386793,9.508 22.0836792,8.923 22.9386792,8.923 C23.1816793,8.923 23.5506793,8.995 23.7216793,9.22 C23.8836793,9.418 23.8836793,9.661 23.8836793,10.219 C23.6226792,10.201 23.4876792,10.192 23.2716792,10.192 C22.9116792,10.192 22.1916792,10.219 21.7056792,10.489 C21.0396792,10.876 20.9136793,11.452 20.9136793,11.812 C20.9136793,12.559 21.4716793,13.144 22.5066792,13.144 Z M22.7046792,12.478 C21.9486792,12.478 21.7686792,11.983 21.7686792,11.695 C21.7686792,10.777 23.0556792,10.777 23.3976792,10.777 C23.6046792,10.777 23.7306792,10.786 23.8836792,10.804 C23.8656792,11.434 23.8566792,11.686 23.6676792,11.992 C23.4606792,12.307 23.1366792,12.478 22.7046792,12.478 Z M27.0416195,13 L27.0416195,10.399 C27.0416195,9.49 27.6086195,9.049 28.2206195,9.049 C28.5086195,9.049 28.8056195,9.148 29.0216195,9.355 C29.2286195,9.562 29.2646195,9.832 29.2646195,10.129 L29.2646195,13 L30.1286195,13 L30.1286195,9.931 C30.1286195,8.545 28.8956195,8.392 28.4906195,8.392 C27.4646195,8.392 27.1406195,9.022 27.0416195,9.211 L27.0326195,8.482 L26.1866195,8.482 L26.1956195,9.004 L26.1956195,13 L27.0416195,13 Z M33.2325598,13.09 C33.5385597,13.09 33.9795597,13.009 34.3485597,12.757 C34.5825598,12.595 34.6815597,12.406 34.7535598,12.28 L34.7715598,13 L35.6175597,13 C35.5995597,12.766 35.5815597,12.379 35.5815597,12.28 L35.5815597,6.511 L34.7355598,6.511 L34.7355598,9.094 C34.6275598,8.905 34.3035597,8.329 33.3315598,8.329 C32.2695597,8.329 31.2885597,9.076 31.2885597,10.795 C31.2885597,12.775 32.6295597,13.09 33.2325598,13.09 Z M33.4305598,12.496 C32.3955598,12.496 32.1885598,11.569 32.1885598,10.768 C32.1885598,10.462 32.1885598,8.959 33.4305598,8.959 C33.9075598,8.959 34.2405598,9.184 34.4205598,9.418 C34.6095598,9.661 34.7625598,10.021 34.7625598,10.678 C34.7625598,11.029 34.7625598,12.496 33.4305598,12.496 Z M38.8115,13.135 C39.7205,13.135 40.1705,12.757 40.3685,12.532 C40.6925,12.181 40.7285,11.812 40.7555,11.587 L39.9095,11.587 C39.8375,12.235 39.3965,12.523 38.8475,12.523 C37.9205,12.523 37.5335,11.83 37.5515,10.894 L40.8005,10.894 C40.8185,10.156 40.8635,8.365 38.8385,8.365 C38.5775,8.365 38.0375,8.392 37.6055,8.698 C36.8945,9.193 36.7145,9.931 36.7145,10.822 C36.7145,12.253 37.3895,13.135 38.8115,13.135 Z M39.9365,10.3 L37.5875,10.3 C37.6055,9.301 38.2715,8.968 38.8205,8.968 C39.8645,8.968 39.9455,9.868 39.9365,10.3 Z M42.8784402,13 L42.8784402,10.597 C42.8784402,9.823 43.1124402,9.229 44.1114402,9.229 C44.2104402,9.229 44.2914402,9.229 44.3544402,9.238 C44.4174402,9.247 44.4714402,9.256 44.5164402,9.274 L44.5164402,8.446 C44.3724402,8.437 44.1834402,8.428 43.9314402,8.464 C43.5534402,8.518 43.0134402,8.725 42.8514402,9.355 L42.8334402,8.482 L41.9784402,8.482 C42.0054402,8.779 42.0234403,9.094 42.0234403,9.4 L42.0234403,13 L42.8784402,13 Z M47.1883805,13.135 C48.0973805,13.135 48.5473805,12.757 48.7453805,12.532 C49.0693805,12.181 49.1053805,11.812 49.1323805,11.587 L48.2863805,11.587 C48.2143805,12.235 47.7733805,12.523 47.2243805,12.523 C46.2973805,12.523 45.9103805,11.83 45.9283805,10.894 L49.1773805,10.894 C49.1953805,10.156 49.2403805,8.365 47.2153805,8.365 C46.9543805,8.365 46.4143805,8.392 45.9823805,8.698 C45.2713805,9.193 45.0913805,9.931 45.0913805,10.822 C45.0913805,12.253 45.7663805,13.135 47.1883805,13.135 Z M48.3133805,10.3 L45.9643805,10.3 C45.9823805,9.301 46.6483805,8.968 47.1973805,8.968 C48.2413805,8.968 48.3223805,9.868 48.3133805,10.3 Z M8.8658585,22.153 C10.5308585,22.153 11.4308585,21.28 11.4308585,20.128 C11.4308585,19.858 11.3858585,19.228 10.7828585,18.832 C10.4048585,18.58 10.2338585,18.544 8.6858585,18.148 C7.8938585,17.959 7.5158585,17.761 7.5158585,17.185 C7.5158585,16.537 8.0558585,16.132 8.9558585,16.132 C9.5948585,16.132 10.2788585,16.312 10.3238585,17.122 L11.2598585,17.122 C11.2418585,16.852 11.2238585,16.411 10.8638585,16.015 C10.3418585,15.448 9.4688585,15.376 9.0368585,15.376 C7.8128585,15.376 6.5618585,15.952 6.5618585,17.275 C6.5618585,17.707 6.7058585,18.193 7.2368585,18.553 C7.5698585,18.778 8.0108585,18.886 9.0008585,19.129 C9.9098585,19.354 10.4948585,19.498 10.4948585,20.227 C10.4948585,20.551 10.3238585,21.388 8.9738585,21.388 C7.4798585,21.388 7.4258585,20.551 7.4078585,20.101 L6.4718585,20.101 C6.4718585,20.416 6.4808585,20.938 6.8498585,21.415 C7.3628585,22.072 8.3708585,22.153 8.8658585,22.153 Z M13.6347987,16.447 L13.6347987,15.52 L12.6177988,15.52 L12.6177988,16.447 L13.6347987,16.447 Z M13.5537988,22 L13.5537988,17.482 L12.7077988,17.482 L12.7077988,22 L13.5537988,22 Z M16.009739,22 L16.009739,19.399 C16.009739,18.49 16.576739,18.049 17.188739,18.049 C17.476739,18.049 17.773739,18.148 17.989739,18.355 C18.196739,18.562 18.232739,18.832 18.232739,19.129 L18.232739,22 L19.096739,22 L19.096739,18.931 C19.096739,17.545 17.863739,17.392 17.458739,17.392 C16.432739,17.392 16.108739,18.022 16.009739,18.211 L16.000739,17.482 L15.154739,17.482 L15.163739,18.004 L15.163739,22 L16.009739,22 Z M21.4446793,22 L21.4446793,19.399 C21.4446793,18.49 22.0116793,18.049 22.6236793,18.049 C22.9116792,18.049 23.2086792,18.148 23.4246792,18.355 C23.6316792,18.562 23.6676792,18.832 23.6676792,19.129 L23.6676792,22 L24.5316792,22 L24.5316792,18.931 C24.5316792,17.545 23.2986792,17.392 22.8936792,17.392 C21.8676793,17.392 21.5436793,18.022 21.4446793,18.211 L21.4356792,17.482 L20.5896792,17.482 L20.5986792,18.004 L20.5986792,22 L21.4446793,22 Z M27.7796195,22.135 C28.6886195,22.135 29.1386195,21.757 29.3366195,21.532 C29.6606195,21.181 29.6966195,20.812 29.7236195,20.587 L28.8776195,20.587 C28.8056195,21.235 28.3646195,21.523 27.8156195,21.523 C26.8886195,21.523 26.5016195,20.83 26.5196195,19.894 L29.7686195,19.894 C29.7866195,19.156 29.8316195,17.365 27.8066195,17.365 C27.5456195,17.365 27.0056195,17.392 26.5736195,17.698 C25.8626195,18.193 25.6826195,18.931 25.6826195,19.822 C25.6826195,21.253 26.3576195,22.135 27.7796195,22.135 Z M28.9046195,19.3 L26.5556195,19.3 C26.5736195,18.301 27.2396195,17.968 27.7886195,17.968 C28.8326195,17.968 28.9136195,18.868 28.9046195,19.3 Z M32.3055598,22.126 C32.7735598,22.126 33.2505598,22.063 33.6465598,21.82 C33.9795597,21.613 34.2585598,21.181 34.2585598,20.677 C34.2585598,20.389 34.1685598,20.074 33.9165597,19.84 C33.6465598,19.588 33.3765597,19.516 32.1255598,19.219 C31.8915597,19.156 31.4865597,19.057 31.4865597,18.643 C31.4865597,18.0382 32.1764798,17.99788 32.3709118,17.995192 L32.4045598,17.995 C32.7105598,17.995 33.3045598,18.049 33.2775598,18.733 L34.1415597,18.733 C34.1415597,18.544 34.1415597,18.328 34.0245598,18.076 C33.7545597,17.536 32.9625597,17.374 32.3955598,17.374 C31.3515597,17.374 30.6315598,17.914 30.6315598,18.742 C30.6315598,19.687 31.4235597,19.876 32.3685598,20.092 C33.0435598,20.245 33.3585597,20.326 33.3585597,20.767 C33.3585597,20.92 33.3045598,21.073 33.2145597,21.19 C33.0345597,21.415 32.7735598,21.478 32.4225597,21.478 C31.6035598,21.478 31.4235597,21.001 31.4325597,20.659 L30.5415597,20.659 C30.5325597,21.748 31.3875598,22.126 32.3055598,22.126 Z M37.2725,22.153 C38.8115,22.153 39.5585,21.055 39.5585,19.732 C39.5585,18.787 39.1535,17.365 37.3445,17.365 C35.5715,17.365 35.0495,18.679 35.0495,19.795 C35.0495,21.118 35.7785,22.153 37.2725,22.153 Z M37.2905,21.523 C36.3275,21.523 35.9315,20.668 35.9315,19.741 C35.9315,18.328 36.8045,17.986 37.3445,17.986 C38.1365,17.986 38.6585,18.58 38.6585,19.705 C38.6585,21.064 37.9295,21.523 37.2905,21.523 Z M41.7174403,22 L41.7174403,19.597 C41.7174403,18.823 41.9514403,18.229 42.9504402,18.229 C43.0494403,18.229 43.1304402,18.229 43.1934403,18.238 C43.2564403,18.247 43.3104402,18.256 43.3554403,18.274 L43.3554403,17.446 C43.2114403,17.437 43.0224403,17.428 42.7704403,17.464 C42.3924402,17.518 41.8524403,17.725 41.6904403,18.355 L41.6724403,17.482 L40.8174403,17.482 C40.8444403,17.779 40.8624403,18.094 40.8624403,18.4 L40.8624403,22 L41.7174403,22 Z M46.0633805,23.809 C46.6843805,23.809 47.5663805,23.719 47.9443805,22.999 C48.1243805,22.657 48.1603805,22.216 48.1603805,21.127 L48.1693805,18.301 L48.1873805,17.482 L47.3683805,17.482 L47.3593805,18.103 C47.1793805,17.869 46.8463805,17.419 45.9373805,17.419 C44.8303805,17.419 43.9303805,18.166 43.9303805,19.696 C43.9303805,20.299 44.0563805,20.902 44.4433805,21.361 C44.8213805,21.829 45.4153805,21.919 45.8293805,21.919 C46.0993805,21.919 46.9543805,21.901 47.3143805,21.154 C47.3143805,22.378 47.2963805,23.233 46.1173805,23.233 C45.3163805,23.233 45.1003805,22.855 45.0643805,22.351 L44.1643805,22.351 C44.2003805,22.963 44.2543805,23.809 46.0633805,23.809 Z M46.0453805,21.289 C45.0103805,21.289 44.8033805,20.371 44.8033805,19.678 C44.8033805,19.102 44.9473805,18.022 46.0183805,18.022 C46.4053805,18.022 46.7653805,18.175 46.9903805,18.418 C47.2153805,18.652 47.3413805,18.976 47.3413805,19.543 C47.3413805,20.362 47.2153805,20.605 47.0353805,20.839 C46.8283805,21.109 46.5403805,21.289 46.0453805,21.289 Z M50.7873207,22.144 C51.1653207,22.144 51.7773208,22.072 52.1823208,21.325 C52.1823208,21.559 52.2003207,21.775 52.2633207,22 L53.0283207,22 C52.9653207,21.541 52.9563207,20.938 52.9563207,20.866 L52.9923207,18.706 C52.9923207,18.499 52.9833207,18.283 52.8393207,18.013 C52.5963207,17.554 51.8943207,17.347 51.2373208,17.347 C50.7603207,17.347 50.1213207,17.455 49.7793207,17.833 C49.5183208,18.139 49.4913207,18.454 49.4643207,18.688 L50.3103208,18.688 C50.3193207,18.508 50.3643207,17.923 51.2193208,17.923 C51.4623207,17.923 51.8313207,17.995 52.0023207,18.22 C52.1643208,18.418 52.1643208,18.661 52.1643208,19.219 C51.9033207,19.201 51.7683208,19.192 51.5523207,19.192 C51.1923208,19.192 50.4723208,19.219 49.9863207,19.489 C49.3203208,19.876 49.1943207,20.452 49.1943207,20.812 C49.1943207,21.559 49.7523207,22.144 50.7873207,22.144 Z M50.9853207,21.478 C50.2293207,21.478 50.0493207,20.983 50.0493207,20.695 C50.0493207,19.777 51.3363207,19.777 51.6783207,19.777 C51.8853207,19.777 52.0113207,19.786 52.1643207,19.804 C52.1463207,20.434 52.1373207,20.686 51.9483207,20.992 C51.7413207,21.307 51.4173207,21.478 50.9853207,21.478 Z M55.322261,22 L55.322261,19.399 C55.322261,18.49 55.889261,18.049 56.501261,18.049 C56.789261,18.049 57.086261,18.148 57.302261,18.355 C57.509261,18.562 57.545261,18.832 57.545261,19.129 L57.545261,22 L58.409261,22 L58.409261,18.931 C58.409261,17.545 57.176261,17.392 56.771261,17.392 C55.745261,17.392 55.421261,18.022 55.322261,18.211 L55.313261,17.482 L54.467261,17.482 L54.476261,18.004 L54.476261,22 L55.322261,22 Z M61.6572012,22.135 C62.5662012,22.135 63.0162013,21.757 63.2142013,21.532 C63.5382013,21.181 63.5742013,20.812 63.6012013,20.587 L62.7552012,20.587 C62.6832013,21.235 62.2422013,21.523 61.6932013,21.523 C60.7662013,21.523 60.3792013,20.83 60.3972013,19.894 L63.6462013,19.894 C63.6642013,19.156 63.7092012,17.365 61.6842013,17.365 C61.4232013,17.365 60.8832012,17.392 60.4512013,17.698 C59.7402013,18.193 59.5602013,18.931 59.5602013,19.822 C59.5602013,21.253 60.2352013,22.135 61.6572012,22.135 Z M62.7822012,19.3 L60.4332013,19.3 C60.4512013,18.301 61.1172013,17.968 61.6662013,17.968 C62.7102013,17.968 62.7912013,18.868 62.7822012,19.3 Z" id="andereSinnesorgane" fill="#FFFFFF" fill-rule="nonzero"></path>
                    </g>
                </g>
                <g id="Text-Box-Copy-3" transform="translate(177.000000, 113.000000)">
                    <g id="Group-6">
                        <rect id="Rectangle" stroke-opacity="0.602873689" stroke="#FFFFFF" x="0" y="0" width="70" height="28"></rect>
                        <path d="M11.6018585,13.144 C12.7088585,13.144 13.5368585,12.874 13.9148585,12.748 L13.9148585,9.544 L11.5298585,9.544 L11.5298585,10.291 L13.0148585,10.291 L13.0148585,12.217 C12.8078585,12.28 12.3398585,12.424 11.6018585,12.424 C10.9538585,12.424 10.2968585,12.271 9.8738585,11.785 C9.3968585,11.218 9.2798585,10.291 9.2798585,9.742 C9.2798585,9.13 9.4058585,8.284 9.9728585,7.654 C10.3148585,7.267 10.8278585,7.105 11.4398585,7.105 C12.3218585,7.105 12.8078585,7.519 12.9068585,8.122 L13.8878585,8.122 C13.8698585,7.87 13.8428585,7.492 13.4558585,7.087 C12.8348585,6.457 12.0518585,6.394 11.5388585,6.394 C11.2148585,6.394 10.3688585,6.421 9.7298585,6.853 C8.4968585,7.681 8.3348585,9.211 8.3348585,9.859 C8.3348585,10.777 8.6048585,11.686 9.2438585,12.334 C9.7028585,12.802 10.4048585,13.144 11.6018585,13.144 Z M17.2167988,13.135 C18.1257988,13.135 18.5757987,12.757 18.7737987,12.532 C19.0977988,12.181 19.1337987,11.812 19.1607987,11.587 L18.3147988,11.587 C18.2427988,12.235 17.8017987,12.523 17.2527988,12.523 C16.3257988,12.523 15.9387988,11.83 15.9567988,10.894 L19.2057987,10.894 C19.2237988,10.156 19.2687988,8.365 17.2437987,8.365 C16.9827988,8.365 16.4427988,8.392 16.0107987,8.698 C15.2997988,9.193 15.1197988,9.931 15.1197988,10.822 C15.1197988,12.253 15.7947988,13.135 17.2167988,13.135 Z M18.3417988,10.3 L15.9927988,10.3 C16.0107987,9.301 16.6767987,8.968 17.2257988,8.968 C18.2697987,8.968 18.3507988,9.868 18.3417988,10.3 Z M21.742739,13.126 C22.210739,13.126 22.687739,13.063 23.083739,12.82 C23.416739,12.613 23.695739,12.181 23.695739,11.677 C23.695739,11.389 23.605739,11.074 23.353739,10.84 C23.083739,10.588 22.813739,10.516 21.562739,10.219 C21.328739,10.156 20.923739,10.057 20.923739,9.643 C20.923739,8.995 21.715739,8.995 21.841739,8.995 C22.147739,8.995 22.741739,9.049 22.714739,9.733 L23.578739,9.733 C23.578739,9.544 23.578739,9.328 23.461739,9.076 C23.191739,8.536 22.399739,8.374 21.832739,8.374 C20.788739,8.374 20.068739,8.914 20.068739,9.742 C20.068739,10.687 20.860739,10.876 21.805739,11.092 C22.480739,11.245 22.795739,11.326 22.795739,11.767 C22.795739,11.92 22.741739,12.073 22.651739,12.19 C22.471739,12.415 22.210739,12.478 21.859739,12.478 C21.040739,12.478 20.860739,12.001 20.869739,11.659 L19.978739,11.659 C19.969739,12.748 20.824739,13.126 21.742739,13.126 Z M25.6296792,14.737 L25.6296792,12.496 C25.8726792,12.892 26.3586792,13.171 27.0156792,13.171 C28.0956792,13.171 29.0766792,12.433 29.0766792,10.75 C29.0766792,9.076 28.1496792,8.41 27.1776792,8.41 C26.8086792,8.41 26.0616792,8.518 25.6386792,9.229 L25.6206792,8.482 L24.7656792,8.482 C24.7814292,8.86 24.7902886,8.9899375 24.7922574,9.14916016 L24.7926792,14.737 L25.6296792,14.737 Z M26.8716793,12.55 C25.6836793,12.55 25.6026793,11.425 25.6026793,10.876 C25.6026793,10.471 25.6026793,9.04 26.9526793,9.04 C27.9516793,9.04 28.1946793,9.886 28.1946793,10.696 C28.1946793,11.02 28.1496793,11.668 27.8256793,12.109 C27.5376793,12.505 27.0876793,12.55 26.8716793,12.55 Z M32.0276195,13.135 C32.9366195,13.135 33.3866195,12.757 33.5846195,12.532 C33.9086195,12.181 33.9446195,11.812 33.9716195,11.587 L33.1256195,11.587 C33.0536195,12.235 32.6126195,12.523 32.0636195,12.523 C31.1366195,12.523 30.7496195,11.83 30.7676195,10.894 L34.0166195,10.894 C34.0346195,10.156 34.0796195,8.365 32.0546195,8.365 C31.7936195,8.365 31.2536195,8.392 30.8216195,8.698 C30.1106195,9.193 29.9306195,9.931 29.9306195,10.822 C29.9306195,12.253 30.6056195,13.135 32.0276195,13.135 Z M33.1526195,10.3 L30.8036195,10.3 C30.8216195,9.301 31.4876195,8.968 32.0366195,8.968 C33.0806195,8.968 33.1616195,9.868 33.1526195,10.3 Z M36.1305598,7.447 L36.1305598,6.52 L35.1135598,6.52 L35.1135598,7.447 L36.1305598,7.447 Z M36.0495598,13 L36.0495598,8.482 L35.2035598,8.482 L35.2035598,13 L36.0495598,13 Z M39.2705,13.117 C40.3865,13.117 41.0435,12.379 41.0975,11.497 L40.2425,11.497 C40.2245,11.938 39.9815,12.478 39.2615,12.478 C38.3615,12.478 38.1365,11.614 38.1365,10.687 C38.1365,10.345 38.1365,8.986 39.3065,8.986 C40.1255,8.986 40.1885,9.724 40.2065,9.931 L41.0615,9.931 C41.0435,9.679 41.0165,9.31 40.6835,8.923 C40.2695,8.428 39.5945,8.365 39.2975,8.365 C38.3975,8.365 37.2455,8.923 37.2455,10.804 C37.2455,11.74 37.5155,12.217 37.7855,12.532 C38.2625,13.054 38.9645,13.117 39.2705,13.117 Z M42.4734403,13 L42.4734403,10.606 C42.4734403,10.327 42.4734403,9.904 42.6174403,9.652 C42.7344403,9.436 43.0494403,9.049 43.6794403,9.049 C44.6002824,9.049 44.6487477,9.83252355 44.6512985,10.2593589 L44.6514403,13 L45.5154403,13 L45.5154403,10.174 C45.5154403,9.517 45.4524403,9.301 45.3624403,9.121 C45.1014403,8.572 44.4174403,8.401 43.9404403,8.401 C43.3104403,8.401 42.7524403,8.671 42.4734403,9.148 L42.4734403,6.511 L41.6184403,6.511 L41.6184403,13 L42.4734403,13 Z M48.8263805,13.135 C49.7353805,13.135 50.1853805,12.757 50.3833805,12.532 C50.7073805,12.181 50.7433805,11.812 50.7703805,11.587 L49.9243805,11.587 C49.8523805,12.235 49.4113805,12.523 48.8623805,12.523 C47.9353805,12.523 47.5483805,11.83 47.5663805,10.894 L50.8153805,10.894 C50.8333805,10.156 50.8783805,8.365 48.8533805,8.365 C48.5923805,8.365 48.0523805,8.392 47.6203805,8.698 C46.9093805,9.193 46.7293805,9.931 46.7293805,10.822 C46.7293805,12.253 47.4043805,13.135 48.8263805,13.135 Z M49.9513805,10.3 L47.6023805,10.3 C47.6203805,9.301 48.2863805,8.968 48.8353805,8.968 C49.8793805,8.968 49.9603805,9.868 49.9513805,10.3 Z M52.8933208,13 L52.8933208,10.597 C52.8933208,9.823 53.1273208,9.229 54.1263207,9.229 C54.2253208,9.229 54.3063207,9.229 54.3693207,9.238 C54.4323208,9.247 54.4863207,9.256 54.5313207,9.274 L54.5313207,8.446 C54.3873208,8.437 54.1983208,8.428 53.9463207,8.464 C53.5683207,8.518 53.0283207,8.725 52.8663207,9.355 L52.8483207,8.482 L51.9933208,8.482 C52.0203208,8.779 52.0383208,9.094 52.0383208,9.4 L52.0383208,13 L52.8933208,13 Z M56.456261,13.063 C56.762261,13.063 57.005261,13.036 57.158261,13.009 L57.158261,12.352 C57.086261,12.37 56.924261,12.397 56.753261,12.397 C56.1933324,12.397 56.1533375,12.0710714 56.1504808,11.8443626 L56.150261,9.085 L57.158261,9.085 L57.158261,8.464 L56.150261,8.464 L56.150261,7.249 L55.313261,7.519 L55.313261,8.464 L54.512261,8.464 L54.512261,9.085 L55.313261,9.085 L55.313261,12.1 C55.313261,12.838 55.682261,13.063 56.456261,13.063 Z M59.9112012,13.135 C60.8202012,13.135 61.2702012,12.757 61.4682012,12.532 C61.7922012,12.181 61.8282012,11.812 61.8552012,11.587 L61.0092012,11.587 C60.9372012,12.235 60.4962012,12.523 59.9472012,12.523 C59.0202012,12.523 58.6332012,11.83 58.6512012,10.894 L61.9002012,10.894 C61.9182012,10.156 61.9632012,8.365 59.9382012,8.365 C59.6772012,8.365 59.1372012,8.392 58.7052012,8.698 C57.9942012,9.193 57.8142012,9.931 57.8142012,10.822 C57.8142012,12.253 58.4892012,13.135 59.9112012,13.135 Z M61.0362012,10.3 L58.6872013,10.3 C58.7052013,9.301 59.3712012,8.968 59.9202012,8.968 C60.9642013,8.968 61.0452012,9.868 61.0362012,10.3 Z M18.8722689,22 L18.8722689,21.208 L15.6232689,21.208 L15.6232689,19.048 L18.6472689,19.048 L18.6472689,18.292 L15.6232689,18.292 L15.6232689,16.267 L18.8002689,16.267 L18.8002689,15.502 L14.7232689,15.502 L14.7232689,22 L18.8722689,22 Z M21.1662091,22 L21.1662091,19.597 C21.1662091,18.823 21.4002091,18.229 22.3992091,18.229 C22.4982091,18.229 22.5792091,18.229 22.6422091,18.238 C22.7052091,18.247 22.7592091,18.256 22.8042091,18.274 L22.8042091,17.446 C22.6602091,17.437 22.4712091,17.428 22.2192091,17.464 C21.8412091,17.518 21.3012091,17.725 21.1392091,18.355 L21.1212091,17.482 L20.2662091,17.482 C20.2932091,17.779 20.3112091,18.094 20.3112091,18.4 L20.3112091,22 L21.1662091,22 Z M24.7831494,22 L24.7831494,18.094 L25.8361494,18.094 L25.8361494,17.482 L24.7831494,17.482 L24.7831494,16.771 C24.7831494,16.456 24.7831494,16.114 25.4671494,16.114 C25.6381494,16.114 25.8181494,16.123 25.9621494,16.132 L25.9621494,15.457 C25.7821494,15.43 25.5121494,15.394 25.2691494,15.394 C24.6841494,15.394 24.3241494,15.601 24.1351494,15.889 C23.9821494,16.123 23.9461494,16.348 23.9461494,16.969 L23.9461494,17.482 L23.0551494,17.482 L23.0551494,18.094 L23.9461494,18.094 L23.9461494,22 L24.7831494,22 Z M27.9140896,22.144 C28.2920896,22.144 28.9040896,22.072 29.3090896,21.325 C29.3090896,21.559 29.3270896,21.775 29.3900896,22 L30.1550896,22 C30.0920896,21.541 30.0830896,20.938 30.0830896,20.866 L30.1190896,18.706 C30.1190896,18.499 30.1100896,18.283 29.9660896,18.013 C29.7230896,17.554 29.0210896,17.347 28.3640896,17.347 C27.8870896,17.347 27.2480896,17.455 26.9060896,17.833 C26.6450896,18.139 26.6180896,18.454 26.5910896,18.688 L27.4370896,18.688 C27.4460896,18.508 27.4910896,17.923 28.3460896,17.923 C28.5890896,17.923 28.9580896,17.995 29.1290896,18.22 C29.2910896,18.418 29.2910896,18.661 29.2910896,19.219 C29.0300896,19.201 28.8950896,19.192 28.6790896,19.192 C28.3190896,19.192 27.5990896,19.219 27.1130896,19.489 C26.4470896,19.876 26.3210896,20.452 26.3210896,20.812 C26.3210896,21.559 26.8790896,22.144 27.9140896,22.144 Z M28.1120896,21.478 C27.3560896,21.478 27.1760896,20.983 27.1760896,20.695 C27.1760896,19.777 28.4630896,19.777 28.8050896,19.777 C29.0120896,19.777 29.1380896,19.786 29.2910896,19.804 C29.2730896,20.434 29.2640896,20.686 29.0750896,20.992 C28.8680896,21.307 28.5440896,21.478 28.1120896,21.478 Z M32.4310299,22 L32.4310299,19.606 C32.4310299,19.327 32.4310299,18.904 32.5750299,18.652 C32.6920299,18.436 33.0070299,18.049 33.6370299,18.049 C34.6090299,18.049 34.6090299,18.922 34.6090299,19.327 L34.6090299,22 L35.4730299,22 L35.4730299,19.174 C35.4730299,18.517 35.4100299,18.301 35.3200299,18.121 C35.0590299,17.572 34.3750299,17.401 33.8980299,17.401 C33.2680299,17.401 32.7100299,17.671 32.4310299,18.148 L32.4310299,15.511 L31.5760299,15.511 L31.5760299,22 L32.4310299,22 Z M37.9109701,22 L37.9109701,19.597 C37.9109701,18.823 38.1449701,18.229 39.1439701,18.229 C39.2429701,18.229 39.3239701,18.229 39.3869701,18.238 C39.4499701,18.247 39.5039701,18.256 39.5489701,18.274 L39.5489701,17.446 C39.4049701,17.437 39.2159701,17.428 38.9639701,17.464 C38.5859701,17.518 38.0459701,17.725 37.8839701,18.355 L37.8659701,17.482 L37.0109701,17.482 C37.0379701,17.779 37.0559701,18.094 37.0559701,18.4 L37.0559701,22 L37.9109701,22 Z M41.9959104,22.045 C42.9679104,22.045 43.2739104,21.541 43.4359104,21.226 L43.4539104,22 L44.3359104,22 C44.3269104,21.748 44.3089104,21.244 44.3089104,21.154 L44.3089104,17.482 L43.4359104,17.482 L43.4359104,20.038 C43.4359104,20.263 43.4359104,20.614 43.2469104,20.884 C43.0039104,21.244 42.6079104,21.388 42.1849104,21.388 C41.3209104,21.388 41.2219104,20.83 41.2219104,20.389 L41.2219104,17.482 L40.3579104,17.482 L40.3579104,20.515 C40.3579104,21.406 40.8799104,22.045 41.9959104,22.045 Z M46.7558506,22 L46.7558506,19.399 C46.7558506,18.49 47.3228506,18.049 47.9348506,18.049 C48.2228506,18.049 48.5198506,18.148 48.7358506,18.355 C48.9428506,18.562 48.9788506,18.832 48.9788506,19.129 L48.9788506,22 L49.8428506,22 L49.8428506,18.931 C49.8428506,17.545 48.6098506,17.392 48.2048506,17.392 C47.1788506,17.392 46.8548506,18.022 46.7558506,18.211 L46.7468506,17.482 L45.9008506,17.482 L45.9098506,18.004 L45.9098506,22 L46.7558506,22 Z M53.1267909,23.809 C53.7477909,23.809 54.6297909,23.719 55.0077909,22.999 C55.1877909,22.657 55.2237909,22.216 55.2237909,21.127 L55.2327909,18.301 L55.2507909,17.482 L54.4317909,17.482 L54.4227909,18.103 C54.2427909,17.869 53.9097909,17.419 53.0007909,17.419 C51.8937909,17.419 50.9937909,18.166 50.9937909,19.696 C50.9937909,20.299 51.1197909,20.902 51.5067909,21.361 C51.8847909,21.829 52.4787909,21.919 52.8927909,21.919 C53.1627909,21.919 54.0177909,21.901 54.3777909,21.154 C54.3777909,22.378 54.3597909,23.233 53.1807909,23.233 C52.3797909,23.233 52.1637909,22.855 52.1277909,22.351 L51.2277909,22.351 C51.2637909,22.963 51.3177909,23.809 53.1267909,23.809 Z M53.1087909,21.289 C52.0737909,21.289 51.8667909,20.371 51.8667909,19.678 C51.8667909,19.102 52.0107909,18.022 53.0817909,18.022 C53.4687909,18.022 53.8287909,18.175 54.0537909,18.418 C54.2787909,18.652 54.4047909,18.976 54.4047909,19.543 C54.4047909,20.362 54.2787909,20.605 54.0987909,20.839 C53.8917909,21.109 53.6037909,21.289 53.1087909,21.289 Z" id="GespeicherteErfahrung" fill="#FFFFFF" fill-rule="nonzero"></path>
                    </g>
                </g>
                <g id="Text-Box-Copy-4" transform="translate(270.000000, 113.000000)">
                    <g id="Group-6">
                        <rect id="Rectangle" stroke-opacity="0.602873689" stroke="#FFFFFF" x="0" y="0" width="70" height="28"></rect>
                        <path d="M10.4712987,13.153 C12.1362987,13.153 13.0362987,12.28 13.0362987,11.128 C13.0362987,10.858 12.9912987,10.228 12.3882987,9.832 C12.0102987,9.58 11.8392987,9.544 10.2912987,9.148 C9.49929875,8.959 9.12129875,8.761 9.12129875,8.185 C9.12129875,7.537 9.66129875,7.132 10.5612987,7.132 C11.2002987,7.132 11.8842987,7.312 11.9292987,8.122 L12.8652987,8.122 C12.8472988,7.852 12.8292987,7.411 12.4692988,7.015 C11.9472987,6.448 11.0742987,6.376 10.6422987,6.376 C9.41829875,6.376 8.16729875,6.952 8.16729875,8.275 C8.16729875,8.707 8.31129875,9.193 8.84229875,9.553 C9.17529875,9.778 9.61629875,9.886 10.6062987,10.129 C11.5152987,10.354 12.1002987,10.498 12.1002987,11.227 C12.1002987,11.551 11.9292987,12.388 10.5792987,12.388 C9.08529875,12.388 9.03129875,11.551 9.01329875,11.101 L8.07729875,11.101 C8.07729875,11.416 8.08629875,11.938 8.45529875,12.415 C8.96829875,13.072 9.97629875,13.153 10.4712987,13.153 Z M15.555239,13.063 C15.861239,13.063 16.104239,13.036 16.257239,13.009 L16.257239,12.352 C16.185239,12.37 16.023239,12.397 15.852239,12.397 C15.2923104,12.397 15.2523155,12.0710714 15.2494588,11.8443626 L15.249239,9.085 L16.257239,9.085 L16.257239,8.464 L15.249239,8.464 L15.249239,7.249 L14.412239,7.519 L14.412239,8.464 L13.611239,8.464 L13.611239,9.085 L14.412239,9.085 L14.412239,12.1 C14.412239,12.838 14.781239,13.063 15.555239,13.063 Z M18.1731793,7.447 L18.1731793,6.52 L17.1561793,6.52 L17.1561793,7.447 L18.1731793,7.447 Z M18.0921793,13 L18.0921793,8.482 L17.2461793,8.482 L17.2461793,13 L18.0921793,13 Z M20.5211195,13 L20.5211195,10.435 C20.5211195,10.147 20.5301195,9.778 20.7191195,9.517 C20.8181195,9.382 21.1331195,9.022 21.7091195,9.022 C22.3751195,9.022 22.6991195,9.454 22.6991195,10.012 L22.6991195,13 L23.5541195,13 L23.5541195,10.471 C23.5541195,10.273 23.5541195,9.778 23.7521195,9.499 C23.8691195,9.337 24.1661195,9.022 24.7151195,9.022 C25.1471195,9.022 25.4351195,9.211 25.5791195,9.418 C25.6601195,9.535 25.7321195,9.706 25.7321195,10.102 L25.7321195,13 L26.5871195,13 L26.5871195,9.967 C26.5871195,8.635 25.5791195,8.365 24.9311195,8.365 C23.9321195,8.365 23.5631195,8.959 23.4101195,9.211 C23.2481195,8.878 22.9331195,8.365 21.9341195,8.365 C21.5471195,8.365 20.9351195,8.428 20.5031195,9.139 L20.5031195,8.482 L19.6481195,8.482 L19.6661195,9.085 L19.6661195,13 L20.5211195,13 Z M28.9530598,13 L28.9530598,10.435 C28.9530598,10.147 28.9620598,9.778 29.1510598,9.517 C29.2500598,9.382 29.5650598,9.022 30.1410598,9.022 C30.8070598,9.022 31.1310598,9.454 31.1310598,10.012 L31.1310598,13 L31.9860598,13 L31.9860598,10.471 C31.9860598,10.273 31.9860598,9.778 32.1840598,9.499 C32.3010598,9.337 32.5980598,9.022 33.1470598,9.022 C33.5790598,9.022 33.8670598,9.211 34.0110598,9.418 C34.0920598,9.535 34.1640598,9.706 34.1640598,10.102 L34.1640598,13 L35.0190598,13 L35.0190598,9.967 C35.0190598,8.635 34.0110598,8.365 33.3630598,8.365 C32.3640598,8.365 31.9950598,8.959 31.8420598,9.211 C31.6800598,8.878 31.3650598,8.365 30.3660598,8.365 C29.9790598,8.365 29.3670598,8.428 28.9350598,9.139 L28.9350598,8.482 L28.0800598,8.482 L28.0980598,9.085 L28.0980598,13 L28.9530598,13 Z M38.087,13.045 C39.059,13.045 39.365,12.541 39.527,12.226 L39.545,13 L40.427,13 C40.419125,12.7795 40.4043594,12.3660625 40.400791,12.2058555 L40.4,8.482 L39.527,8.482 L39.527,11.038 C39.527,11.263 39.527,11.614 39.338,11.884 C39.095,12.244 38.699,12.388 38.276,12.388 C37.412,12.388 37.313,11.83 37.313,11.389 L37.313,8.482 L36.449,8.482 L36.449,11.515 C36.449,12.406 36.971,13.045 38.087,13.045 Z M42.8469402,13 L42.8469402,10.399 C42.8469402,9.49 43.4139402,9.049 44.0259402,9.049 C44.3139402,9.049 44.6109402,9.148 44.8269402,9.355 C45.0339402,9.562 45.0699402,9.832 45.0699402,10.129 L45.0699402,13 L45.9339402,13 L45.9339402,9.931 C45.9339402,8.545 44.7009402,8.392 44.2959402,8.392 C43.2699402,8.392 42.9459402,9.022 42.8469402,9.211 L42.8379402,8.482 L41.9919402,8.482 L42.0009402,9.004 L42.0009402,13 L42.8469402,13 Z M49.2178805,14.809 C49.8388805,14.809 50.7208805,14.719 51.0988805,13.999 C51.2788805,13.657 51.3148805,13.216 51.3148805,12.127 L51.3238805,9.301 L51.3418805,8.482 L50.5228805,8.482 L50.5138805,9.103 C50.3338805,8.869 50.0008805,8.419 49.0918805,8.419 C47.9848805,8.419 47.0848805,9.166 47.0848805,10.696 C47.0848805,11.299 47.2108805,11.902 47.5978805,12.361 C47.9758805,12.829 48.5698805,12.919 48.9838805,12.919 C49.2538805,12.919 50.1088805,12.901 50.4688805,12.154 C50.4688805,13.378 50.4508805,14.233 49.2718805,14.233 C48.4708805,14.233 48.2548805,13.855 48.2188805,13.351 L47.3188805,13.351 C47.3548805,13.963 47.4088805,14.809 49.2178805,14.809 Z M49.1998805,12.289 C48.1648805,12.289 47.9578805,11.371 47.9578805,10.678 C47.9578805,10.102 48.1018805,9.022 49.1728805,9.022 C49.5598805,9.022 49.9198805,9.175 50.1448805,9.418 C50.3698805,9.652 50.4958805,9.976 50.4958805,10.543 C50.4958805,11.362 50.3698805,11.605 50.1898805,11.839 C49.9828805,12.109 49.6948805,12.289 49.1998805,12.289 Z M54.6168207,13.135 C55.5258207,13.135 55.9758207,12.757 56.1738207,12.532 C56.4978207,12.181 56.5338207,11.812 56.5608207,11.587 L55.7148207,11.587 C55.6428207,12.235 55.2018207,12.523 54.6528207,12.523 C53.7258207,12.523 53.3388207,11.83 53.3568207,10.894 L56.6058207,10.894 C56.6238207,10.156 56.6688207,8.365 54.6438207,8.365 C54.3828207,8.365 53.8428207,8.392 53.4108207,8.698 C52.6998207,9.193 52.5198207,9.931 52.5198207,10.822 C52.5198207,12.253 53.1948207,13.135 54.6168207,13.135 Z M55.7418207,10.3 L53.3928207,10.3 C53.4108207,9.301 54.0768207,8.968 54.6258207,8.968 C55.6698207,8.968 55.7508207,9.868 55.7418207,10.3 Z M58.656761,13 L58.656761,10.399 C58.656761,9.49 59.223761,9.049 59.835761,9.049 C60.123761,9.049 60.420761,9.148 60.636761,9.355 C60.843761,9.562 60.879761,9.832 60.879761,10.129 L60.879761,13 L61.743761,13 L61.743761,9.931 C61.743761,8.545 60.510761,8.392 60.105761,8.392 C59.079761,8.392 58.755761,9.022 58.656761,9.211 L58.647761,8.482 L57.801761,8.482 L57.810761,9.004 L57.810761,13 L58.656761,13 Z M10.2203585,22.045 C11.1923585,22.045 11.4983585,21.541 11.6603585,21.226 L11.6783585,22 L12.5603585,22 C12.5513585,21.748 12.5333585,21.244 12.5333585,21.154 L12.5333585,17.482 L11.6603585,17.482 L11.6603585,20.038 C11.6603585,20.263 11.6603585,20.614 11.4713585,20.884 C11.2283585,21.244 10.8323585,21.388 10.4093585,21.388 C9.5453585,21.388 9.4463585,20.83 9.4463585,20.389 L9.4463585,17.482 L8.5823585,17.482 L8.5823585,20.515 C8.5823585,21.406 9.1043585,22.045 10.2203585,22.045 Z M14.9802987,22 L14.9802987,19.399 C14.9802987,18.49 15.5472987,18.049 16.1592987,18.049 C16.4472988,18.049 16.7442987,18.148 16.9602987,18.355 C17.1672988,18.562 17.2032988,18.832 17.2032988,19.129 L17.2032988,22 L18.0672987,22 L18.0672987,18.931 C18.0672987,17.545 16.8342987,17.392 16.4292988,17.392 C15.4032987,17.392 15.0792987,18.022 14.9802987,18.211 L14.9712987,17.482 L14.1252987,17.482 L14.1342987,18.004 L14.1342987,22 L14.9802987,22 Z M21.171239,22.09 C21.477239,22.09 21.918239,22.009 22.287239,21.757 C22.521239,21.595 22.620239,21.406 22.692239,21.28 L22.710239,22 L23.556239,22 C23.538239,21.766 23.520239,21.379 23.520239,21.28 L23.520239,15.511 L22.674239,15.511 L22.674239,18.094 C22.566239,17.905 22.242239,17.329 21.270239,17.329 C20.208239,17.329 19.227239,18.076 19.227239,19.795 C19.227239,21.775 20.568239,22.09 21.171239,22.09 Z M21.369239,21.496 C20.334239,21.496 20.127239,20.569 20.127239,19.768 C20.127239,19.462 20.127239,17.959 21.369239,17.959 C21.846239,17.959 22.179239,18.184 22.359239,18.418 C22.548239,18.661 22.701239,19.021 22.701239,19.678 C22.701239,20.029 22.701239,21.496 21.369239,21.496 Z M32.9490598,22.144 C34.0560598,22.144 34.8840597,21.874 35.2620597,21.748 L35.2620597,18.544 L32.8770598,18.544 L32.8770598,19.291 L34.3620598,19.291 L34.3620598,21.217 C34.1550597,21.28 33.6870598,21.424 32.9490598,21.424 C32.3010598,21.424 31.6440597,21.271 31.2210598,20.785 C30.7440597,20.218 30.6270598,19.291 30.6270598,18.742 C30.6270598,18.13 30.7530597,17.284 31.3200597,16.654 C31.6620597,16.267 32.1750598,16.105 32.7870598,16.105 C33.6690598,16.105 34.1550597,16.519 34.2540598,17.122 L35.2350598,17.122 C35.2170598,16.87 35.1900598,16.492 34.8030598,16.087 C34.1820598,15.457 33.3990597,15.394 32.8860598,15.394 C32.5620598,15.394 31.7160597,15.421 31.0770598,15.853 C29.8440597,16.681 29.6820598,18.211 29.6820598,18.859 C29.6820598,19.777 29.9520597,20.686 30.5910597,21.334 C31.0500598,21.802 31.7520598,22.144 32.9490598,22.144 Z M38.564,22.135 C39.473,22.135 39.923,21.757 40.121,21.532 C40.445,21.181 40.481,20.812 40.508,20.587 L39.662,20.587 C39.59,21.235 39.149,21.523 38.6,21.523 C37.673,21.523 37.286,20.83 37.304,19.894 L40.553,19.894 C40.571,19.156 40.616,17.365 38.591,17.365 C38.33,17.365 37.79,17.392 37.358,17.698 C36.647,18.193 36.467,18.931 36.467,19.822 C36.467,21.253 37.142,22.135 38.564,22.135 Z M39.689,19.3 L37.34,19.3 C37.358,18.301 38.024,17.968 38.573,17.968 C39.617,17.968 39.698,18.868 39.689,19.3 Z M42.8109403,22 L42.8109403,18.094 L43.8639402,18.094 L43.8639402,17.482 L42.8109403,17.482 L42.8109403,16.771 L42.8125616,16.6444347 C42.8231003,16.37088 42.9021403,16.114 43.4949402,16.114 C43.6659402,16.114 43.8459402,16.123 43.9899403,16.132 L43.9899403,15.457 C43.8099403,15.43 43.5399403,15.394 43.2969402,15.394 C42.7119403,15.394 42.3519402,15.601 42.1629402,15.889 C42.0099402,16.123 41.9739402,16.348 41.9739402,16.969 L41.9739402,17.482 L41.0829403,17.482 L41.0829403,18.094 L41.9739402,18.094 L41.9739402,22 L42.8109403,22 Z M46.1758805,16.447 L46.1758805,15.529 L45.3478805,15.529 L45.3478805,16.447 L46.1758805,16.447 Z M47.8858805,16.447 L47.8858805,15.529 L47.0488805,15.529 L47.0488805,16.447 L47.8858805,16.447 Z M46.2118805,22.045 C47.1838805,22.045 47.4898805,21.541 47.6518805,21.226 L47.6698805,22 L48.5518805,22 C48.5428805,21.748 48.5248805,21.244 48.5248805,21.154 L48.5248805,17.482 L47.6518805,17.482 L47.6518805,20.038 C47.6518805,20.263 47.6518805,20.614 47.4628805,20.884 C47.2198805,21.244 46.8238805,21.388 46.4008805,21.388 C45.5368805,21.388 45.4378805,20.83 45.4378805,20.389 L45.4378805,17.482 L44.5738805,17.482 L44.5738805,20.515 C44.5738805,21.406 45.0958805,22.045 46.2118805,22.045 Z M50.9538207,22 L50.9538207,19.606 C50.9538207,19.327 50.9538207,18.904 51.0978207,18.652 C51.2148207,18.436 51.5298207,18.049 52.1598207,18.049 C53.0806629,18.049 53.1291282,18.8325235 53.131679,19.2593589 L53.1318207,22 L53.9958207,22 L53.9958207,19.174 C53.9958207,18.517 53.9328207,18.301 53.8428207,18.121 C53.5818207,17.572 52.8978207,17.401 52.4208207,17.401 C51.7908207,17.401 51.2328207,17.671 50.9538207,18.148 L50.9538207,15.511 L50.0988207,15.511 L50.0988207,22 L50.9538207,22 Z M56.397761,22 L56.397761,15.511 L55.551761,15.511 L55.551761,22 L56.397761,22 Z M59.7447012,22.135 C60.6537012,22.135 61.1037012,21.757 61.3017012,21.532 C61.6257012,21.181 61.6617012,20.812 61.6887012,20.587 L60.8427012,20.587 C60.7707012,21.235 60.3297012,21.523 59.7807012,21.523 C58.8537012,21.523 58.4667012,20.83 58.4847012,19.894 L61.7337012,19.894 C61.7517012,19.156 61.7967012,17.365 59.7717012,17.365 C59.5107012,17.365 58.9707012,17.392 58.5387012,17.698 C57.8277012,18.193 57.6477012,18.931 57.6477012,19.822 C57.6477012,21.253 58.3227012,22.135 59.7447012,22.135 Z M60.8697012,19.3 L58.5207012,19.3 C58.5387012,18.301 59.2047012,17.968 59.7537012,17.968 C60.7977012,17.968 60.8787012,18.868 60.8697012,19.3 Z" id="StimmungenundGefhle" fill="#FFFFFF" fill-rule="nonzero"></path>
                    </g>
                </g>
                <g id="Eye" transform="translate(0.000000, 36.000000)" stroke="#FFFFFF">
                    <path d="M7.00088803,13.4781227 C7.197627,13.6686959 7.39097251,13.8627517 7.58082513,14.0601908 C4.6783767,18.6782154 3,24.1431048 3,30 C3,35.8570433 4.67846158,41.322061 7.58062473,45.9402929 C7.39097251,46.1372483 7.197627,46.3313041 7.00088803,46.5218773 C2.683312,42.3418345 0,36.4842778 0,30 C0,23.5216999 2.67836694,17.6689659 6.9881724,13.4887264 L7.00088803,13.4781227 Z M14,30 C14,34.6491506 12.6205842,38.9761215 10.2487025,42.5939627 C8.1785283,38.8626901 7,34.5689751 7,30 C7,25.4310249 8.1785283,21.1373099 10.2481767,17.4062631 C12.6205842,21.0238785 14,25.3508494 14,30 Z" id="Combined-Shape" fill="#FFFFFF"></path>
                    <circle id="Oval" cx="33" cy="30" r="30"></circle>
                    <circle id="Oval" stroke-width="3" cx="33" cy="30" r="27"></circle>
                    <circle id="Oval" cx="34" cy="30" r="27"></circle>
                    <path d="M55,46.5 C60.3333333,57.5 65.8333333,63 71.5,63" id="Path-3" stroke-width="3"></path>
                    <line x1="72" y1="63" x2="81.5" y2="63" id="Line-7" stroke-width="2.9" stroke-linecap="square"></line>
                </g>
                <g id="Wahrnehmung" transform="translate(276.000000, 51.000000)">
                    <rect id="Rectangle" fill="#FFFFFF" x="0" y="0" width="64" height="33" rx="2"></rect>
                    <text font-family="UniversLTStd-Bold, Univers LT Std" font-size="8" font-weight="bold" letter-spacing="-0.056942" fill="#647FFF">
                        <tspan x="4.249181" y="19">Wahrnehmung</tspan>
                    </text>
                </g>
                <polyline id="Line-9" stroke="#FFFFFF" stroke-linecap="square" points="118.5 73.5 118 14.5 176.5 14.5"></polyline>
                <polyline id="Line-10" stroke="#FFFFFF" stroke-linecap="square" points="247.5 14.5 308.5 14.5 308.5 51.5"></polyline>
                <line x1="308.5" y1="84.5" x2="308.5" y2="112.5" id="Line-11" stroke="#FFFFFF" stroke-linecap="square"></line>
                <line x1="247.5" y1="127.5" x2="269.5" y2="127.5" id="Line-12" stroke="#FFFFFF" stroke-linecap="square"></line>
                <line x1="176.5" y1="127.5" x2="153.5" y2="127.5" id="Line-13" stroke="#FFFFFF" stroke-linecap="square"></line>
                <polyline id="Line-15" stroke="#FFFFFF" stroke-linecap="square" points="153.5 120.5 165 120.5 165 96 221.5 96 221.5 74 276.5 74"></polyline>
                <line x1="221.5" y1="96" x2="221.5" y2="112" id="Line-16" stroke="#FFFFFF" stroke-linecap="square"></line>
                <line x1="154" y1="74" x2="222" y2="74" id="Line-17" stroke="#FFFFFF" stroke-linecap="square"></line>
            </g>
        </g>
    </g>
</svg>